<svg width="220" height="347" viewBox="0 0 220 347" fill="none" xmlns="http://www.w3.org/2000/svg">
<path d="M625.226 312.613C625.226 485.264 485.264 625.226 312.613 625.226C139.961 625.226 -8.48463e-05 485.264 -5.4659e-05 312.613C-2.44717e-05 139.962 139.962 2.44717e-05 312.613 5.4659e-05C485.264 8.48463e-05 625.226 139.962 625.226 312.613ZM11.7228 312.613C11.7227 478.79 146.436 613.503 312.613 613.503C478.79 613.503 613.503 478.79 613.503 312.613C613.503 146.436 478.79 11.7229 312.613 11.7229C146.436 11.7228 11.7228 146.436 11.7228 312.613Z" fill="#E7E7E7"/>
<path d="M601.959 313.114C601.959 472.761 472.539 602.18 312.892 602.18C153.245 602.18 23.8251 472.761 23.8251 313.114C23.8252 153.466 153.245 24.0469 312.892 24.0469C472.539 24.047 601.959 153.467 601.959 313.114ZM36.6086 313.114C36.6086 465.701 160.305 589.397 312.892 589.397C465.479 589.397 589.175 465.701 589.175 313.114C589.175 160.527 465.479 36.8304 312.892 36.8304C160.305 36.8303 36.6086 160.527 36.6086 313.114Z" fill="#E7E7E7"/>
<path d="M585.337 315.86C585.337 463.664 465.518 583.482 317.714 583.482C169.91 583.482 50.0917 463.664 50.0918 315.86C50.0918 168.056 169.911 48.2371 317.714 48.2371C465.518 48.2371 585.337 168.056 585.337 315.86ZM61.9269 315.86C61.9269 457.127 176.447 571.647 317.714 571.647C458.982 571.647 573.502 457.127 573.502 315.86C573.502 174.592 458.982 60.0723 317.714 60.0722C176.447 60.0722 61.9269 174.592 61.9269 315.86Z" fill="#E7E7E7"/>
<path d="M567.712 317.715C567.712 453.223 457.861 563.074 322.352 563.074C186.844 563.074 76.9931 453.223 76.9931 317.715C76.9931 182.207 186.844 72.3555 322.353 72.3555C457.861 72.3555 567.712 182.207 567.712 317.715ZM87.8437 317.715C87.8437 447.231 192.837 552.224 322.352 552.224C451.868 552.224 556.861 447.231 556.861 317.715C556.861 188.199 451.868 83.2061 322.353 83.2061C192.837 83.2061 87.8437 188.199 87.8437 317.715Z" fill="#E7E7E7"/>
</svg>
