<svg width="140" height="20" viewBox="0 0 140 20" fill="none" xmlns="http://www.w3.org/2000/svg">
<g clip-path="url(#clip0_164_1973)">
<path d="M80.7736 7.00062L80.7364 7.07246L75.2114 18.6751H83.02L88.5821 7.00062H80.7736ZM96.1329 15.2266C96.0957 15.2626 96.0586 15.2985 95.9486 15.3344C95.8014 15.4063 95.6171 15.4422 95.4329 15.514C95.3593 15.5499 95.2857 15.5499 95.2114 15.5499H95.1014C94.5121 15.5499 94.07 15.514 93.8857 15.3344C93.775 15.2626 93.7014 15.1548 93.7014 15.0471C93.7014 15.0111 93.7014 14.9393 93.7386 14.8674C93.9229 14.5441 94.3279 14.2568 95.0643 14.0412L95.3222 13.9694C95.8014 13.8976 96.3164 13.7898 96.8321 13.6461L96.1329 15.2266ZM106.556 8.11421C106.556 7.64721 106.261 7.25207 105.746 6.92878C105.635 6.89286 105.488 6.82101 105.378 6.71325C104.346 6.17443 102.762 5.92298 100.7 5.92298H100.074C98.49 5.92298 96.98 6.06666 95.5064 6.31811C94.2543 6.53364 93.0386 6.89286 91.86 7.28799C91.455 7.43168 90.9021 7.64721 90.2029 8.00643L90.1657 8.04236L89.0243 10.3772H96.8693L97.4586 9.22778C97.4586 9.19186 97.4957 9.15593 97.5693 9.12C97.6429 9.08407 97.7536 9.04814 97.8271 9.01221C98.0107 8.94036 98.2321 8.94036 98.49 8.94036H98.8214C98.895 8.94036 98.9686 8.97628 99.0057 9.04814L99.0421 9.08407H99.0793C99.1157 9.08407 99.1529 9.12 99.1529 9.12V9.19186L98.5264 10.5209L95.4693 11.1675L90.9757 12.1374C90.0921 12.317 89.2079 12.6762 88.2507 13.1432C87.6671 13.4649 87.1236 13.8506 86.63 14.2927C86.2986 14.616 86.0771 14.9393 85.8929 15.2266C85.7136 15.5729 85.6136 15.9526 85.5986 16.3402C85.5986 16.9868 85.93 17.5256 86.5564 17.9567L86.5929 17.9926C87.5872 18.6751 89.1714 19.0344 91.3814 19.0344C91.8229 19.0344 92.4864 18.9266 93.3336 18.8188C93.7386 18.7469 94.07 18.6751 94.3643 18.6033C94.5121 18.5674 94.6221 18.5314 94.6964 18.4955L94.5857 18.7111H101.731L106.483 8.79671C106.519 8.54528 106.593 8.32971 106.556 8.11421ZM125.451 8.653C125.488 8.50936 125.525 8.36564 125.525 8.22193C125.525 7.9705 125.451 7.71906 125.267 7.50353C125.156 7.32392 125.046 7.18023 124.825 7.07246C124.125 6.56956 123.057 6.31811 121.547 6.31811C120.331 6.31811 119.19 6.38996 118.195 6.53364C117.238 6.64141 116.464 6.71325 115.911 6.78509C115.359 6.82101 114.991 6.85693 114.844 6.85693C114.733 6.85693 114.659 6.85693 114.586 6.82101C114.512 6.78509 114.475 6.78509 114.439 6.74917C114.364 6.71325 114.328 6.64141 114.328 6.60548V6.56956L114.401 6.42588H109.466L103.609 18.6392H111.308L115.691 9.47921C115.764 9.29957 115.911 9.19186 116.096 9.08407C116.28 8.97628 116.538 8.94036 116.832 8.94036C117.054 8.94036 117.201 8.97628 117.311 9.01221C117.348 9.04814 117.385 9.04814 117.421 9.08407C117.459 9.12 117.459 9.12 117.459 9.19186C117.459 9.22778 117.459 9.29957 117.421 9.37143L112.965 18.6033H120.7L122.652 14.4723C122.652 14.4364 122.689 14.4004 122.689 14.3646V14.2927L125.451 8.653ZM69.5764 9.26371L66.5561 15.514C66.4825 15.6936 66.3351 15.8014 66.1879 15.8732C66.0036 15.9451 65.7459 16.0169 65.4512 16.0169C65.2302 16.0169 65.0461 15.981 64.9356 15.9451C64.8987 15.9091 64.8619 15.9091 64.8251 15.8732C64.7882 15.8373 64.7882 15.8373 64.7882 15.8014C64.7882 15.7655 64.7882 15.6936 64.8251 15.6218L67.8453 9.22778C67.9558 9.12 68.0663 8.97628 68.3241 8.86857C68.5451 8.76078 68.7661 8.72486 68.9871 8.72486C69.1344 8.72486 69.2449 8.72486 69.3186 8.76078C69.3923 8.79671 69.4659 8.83264 69.5028 8.9045C69.5764 8.97628 69.6133 9.01221 69.6133 9.08407C69.6133 9.15593 69.6132 9.19186 69.5764 9.26371ZM79.4843 4.6298L79.6314 4.37835L80.9207 1.64831H73.2229L70.9761 6.35403C69.9447 6.13851 68.7661 6.03074 67.3296 5.99482H66.6666C65.3039 5.99482 63.9779 6.28219 62.7993 6.78509C61.5838 7.288 60.8103 7.93457 60.4051 8.68893L56.8324 16.1247C56.7219 16.3402 56.6482 16.5916 56.6482 16.8072C56.6482 17.2383 56.9061 17.6693 57.3849 17.9567C57.5691 18.1004 57.7164 18.2081 57.9742 18.28C58.6372 18.5674 59.5949 18.7111 60.6998 18.7111C61.6943 18.7111 62.5783 18.6751 63.3517 18.6033C64.1621 18.4955 64.7514 18.4236 65.2302 18.3877C65.3039 18.3877 65.488 18.4236 65.6722 18.6033L65.709 18.6392H72.8543L73.26 17.7771L79.0057 5.70745L79.4843 4.6298ZM137.974 4.34243L139.264 1.64831H130.792L129.761 3.80361C129.65 4.01913 129.539 4.16282 129.356 4.23466C129.171 4.34243 128.987 4.37835 128.692 4.37835H128.619L127.551 6.60548H128.361L127.109 9.26371L126.998 9.587V9.65878L124.346 15.2266C124.199 15.5859 124.125 15.9451 124.125 16.2684C124.125 16.5916 124.199 16.8791 124.346 17.1664C124.456 17.4179 124.678 17.6693 124.936 17.8489C125.709 18.4236 126.666 18.7111 127.771 18.7111H131.197C131.529 18.6751 132.229 18.6392 133.186 18.5314H133.223L134.475 15.8373H134.328C133.775 15.8373 133.37 15.8014 133.149 15.6936C133.039 15.6577 132.928 15.5859 132.891 15.514C132.854 15.4422 132.818 15.3704 132.818 15.2626C132.818 15.1907 132.854 15.083 132.891 14.9752L136.869 6.64141H138.858L139.963 4.37835L137.974 4.34243ZM91.1236 1.64831H83.3514L83.2043 1.93568L82.91 2.51043L81.6207 5.24047H89.4293L91.1236 1.64831ZM37.3481 8.97628L34.7329 14.4004L34.07 15.8732C34.0331 15.9451 33.9226 16.0169 33.7753 16.0529C33.628 16.0888 33.3701 16.1247 33.1124 16.1247C32.8545 16.1247 32.6704 16.0888 32.523 16.0529C32.4862 16.0169 32.4494 16.0169 32.4494 15.981L32.4125 15.9451L34.9908 10.5569L35.6906 9.08407C35.7274 9.01221 35.8011 8.97628 35.9853 8.9045C36.1694 8.86857 36.3904 8.83264 36.7219 8.83264C36.9429 8.83264 37.1271 8.86857 37.2376 8.9045C37.2744 8.94036 37.3481 8.94036 37.3481 8.94036C37.3849 8.97628 37.3481 8.97628 37.3849 8.97628C37.3849 8.94036 37.3849 8.97628 37.3481 8.97628ZM44.6409 10.1617L44.7514 9.91028L45.3775 8.58114C45.4144 8.4375 45.4512 8.32971 45.4512 8.186C45.4512 7.9705 45.3775 7.75498 45.2302 7.57537C45.0829 7.39576 44.8987 7.18023 44.6409 7.03654C44.4567 6.89286 44.1989 6.78509 43.9411 6.67733C42.6888 6.13851 40.9945 5.88706 38.895 5.88706H37.0166C36.2799 5.88706 35.6538 5.92298 34.9539 5.9589C33.5911 6.06666 32.3757 6.31811 31.1971 6.67733C30.3499 6.9647 29.6501 7.25208 29.0976 7.57537C28.5819 7.89864 28.2136 8.25786 28.0294 8.653L25.5617 13.7539L24.9724 15.0111L24.3094 16.448C24.2726 16.5199 24.2726 16.6276 24.2726 16.6994C24.2726 16.9868 24.3831 17.2383 24.6041 17.4897C24.8251 17.7411 25.1197 17.9567 25.5617 18.1363C25.5985 18.1722 25.6722 18.1722 25.709 18.1722C25.7459 18.1722 25.7827 18.2081 25.8195 18.2081C27.035 18.7829 28.7661 18.9984 30.8287 18.9984H32.744C33.4439 18.9984 34.1805 18.9984 34.8066 18.9266C36.1694 18.8188 37.3849 18.5674 38.5635 18.2081C40.2579 17.6693 41.2523 17.0586 41.6943 16.3402L43.9042 11.7064L44.6409 10.1617ZM14.07 11.3471L14.0331 11.419L12.4494 14.7238C12.4494 14.7596 12.4125 14.8315 12.3389 14.8674C12.2652 14.9034 12.1547 14.9752 12.0074 15.0111C11.6759 15.1189 11.3812 15.1907 11.0497 15.1907C10.6446 15.1907 10.3499 15.1189 10.2026 14.9752C10.1657 14.9393 10.1289 14.9034 10.1289 14.8674C10.1289 14.8315 10.1289 14.8315 10.1657 14.7956L14.5856 5.24047C14.6593 5.13271 14.8066 4.98902 15.1013 4.88126C15.3591 4.77349 15.6538 4.73757 16.0221 4.73757C16.4641 4.73757 16.7219 4.80941 16.9061 4.91718L16.9797 4.98902V5.02494C16.9797 5.02494 16.9797 5.06086 16.9429 5.06086L15.8011 7.53945H26.4456L27.1455 6.06666L28.2873 3.58808L28.2136 3.55216C27.8453 3.26478 27.477 3.01333 27.1086 2.76188C26.2246 2.25898 25.267 1.82792 24.3094 1.50463C22.2468 1.00173 19.9631 0.714355 17.3481 0.714355H16.5009C13.7016 0.714355 11.2339 1.07357 9.13443 1.82792C6.99816 2.54636 5.67219 3.51623 5.15654 4.6298L0.184162 15.2626C0.073665 15.5859 0 15.8732 0 16.1606C0 16.5557 0.14733 16.915 0.405156 17.2383C0.662984 17.5616 1.06814 17.8489 1.58379 18.1363C2.98343 18.9266 5.15654 19.2499 7.95579 19.2858H8.83979C10.7182 19.2858 12.8914 19.1062 15.2854 18.7469C18.0479 18.3159 20.221 17.8489 21.8784 17.3819H21.9153L22.6151 15.8732C22.6519 15.7296 22.7256 15.6218 22.7624 15.4781L23.3149 14.3646L24.6777 11.3831H13.9963H14.07V11.3471ZM58.5267 10.1258L60.4051 6.21035H60.2579C59.8526 6.21035 59.4106 6.21035 59.0424 6.24627C58.3426 6.28219 57.7901 6.35403 57.2744 6.42588C56.9797 6.49772 56.5009 6.64141 55.9484 6.85693L55.8379 6.4618H48.4346L47.1455 9.15593C47.1086 9.26371 47.0718 9.40736 46.9981 9.47921L46.4089 10.6646L45.5985 12.3889L43.3886 17.0227C43.3517 17.0586 43.3517 17.0946 43.3149 17.1305L42.6151 18.6033H50.4236L53.7753 11.5986C53.9963 11.0956 54.512 10.7364 55.2854 10.4491C56.0958 10.1976 57.1639 10.0899 58.5267 10.1258Z" fill="#223E85"/>
</g>
<defs>
<clipPath id="clip0_164_1973">
<rect width="140" height="18.5714" fill="white" transform="translate(0 0.714355)"/>
</clipPath>
</defs>
</svg>
