<svg width="140" height="36" viewBox="0 0 140 36" fill="none" xmlns="http://www.w3.org/2000/svg">
<g clip-path="url(#clip0_164_1976)">
<path fill-rule="evenodd" clip-rule="evenodd" d="M42.8846 14.8471L38.9664 20.8116C38.9664 20.8116 39.262 17.6798 39.262 16.9344C39.3359 16.338 39.262 14.8462 37.8569 14.8462C36.5265 14.8462 31.7205 14.8462 31.7205 14.8462L27.7285 25.8816H32.5344L35.4178 17.9026L34.8265 25.8816H39.1142L44.3636 18.0517L41.4802 25.8816H46.2853L50.3521 14.8462H42.8846V14.8471Z" fill="#0061A9"/>
<path fill-rule="evenodd" clip-rule="evenodd" d="M69.0572 25.6588C68.7617 25.7334 66.987 26.1052 64.9915 26.1052C61.5907 26.2551 58.5595 24.8379 58.5595 22.3771C58.4856 17.9771 62.8472 15.5917 66.1002 14.9944C67.5044 14.6962 70.3138 14.3235 73.0496 14.9944L71.4223 18.8717C70.98 17.828 69.7964 17.828 69.2791 17.828C68.1699 17.7535 67.1349 18.1271 66.4697 18.4244C64.8428 19.1699 63.4385 21.5553 65.7306 22.5253C66.9871 23.0471 68.6142 22.5999 70.3145 22.3762L69.0572 25.6588Z" fill="#0061A9"/>
<path fill-rule="evenodd" clip-rule="evenodd" d="M118.295 25.8823H113.045L117.037 14.8469H122.361L118.295 25.8823Z" fill="#0061A9"/>
<path fill-rule="evenodd" clip-rule="evenodd" d="M54.6392 25.8823H49.3906L53.3827 14.8469H58.706L54.6392 25.8823Z" fill="#0061A9"/>
<path fill-rule="evenodd" clip-rule="evenodd" d="M83.2533 14.8469L81.8486 18.7987H79.1122L80.5913 14.8469H75.5641L71.498 25.8823H76.5245L77.9299 22.1533H80.5913L79.2609 25.8823H84.2881L88.3542 14.8469H83.2533Z" fill="#0061A9"/>
<path fill-rule="evenodd" clip-rule="evenodd" d="M107.574 22.2278L110.235 14.8469H105.06L101.068 25.8823H111.418L112.749 22.2278H107.574Z" fill="#0061A9"/>
<path fill-rule="evenodd" clip-rule="evenodd" d="M135.449 14.8471L132.639 22.4525C132.713 21.707 132.862 18.6497 132.935 16.9344C133.009 16.1889 132.862 15.6671 132.492 15.2934C132.049 14.8462 131.531 14.8462 131.531 14.8462H125.394L121.328 25.8816H125.838L128.647 18.0517L128.352 25.8816H135.818L139.885 14.8462H135.449V14.8471Z" fill="#0061A9"/>
<path fill-rule="evenodd" clip-rule="evenodd" d="M93.3805 22.8996L93.8241 21.7069H99.5919L100.552 18.9478H94.7845L95.2289 17.7551H101.291L102.326 14.8469H91.3109L87.2441 25.8823H98.482L99.5175 22.8996H93.3805Z" fill="#0061A9"/>
<path fill-rule="evenodd" clip-rule="evenodd" d="M24.773 19.8554C25.0022 19.451 24.7157 18.6998 24.1994 18.1213C23.7411 17.5434 23.1109 17.3701 23.0536 17.0811C23.6838 15.8092 22.9963 14.7114 22.0223 14.2491C22.0797 13.6706 21.8505 13.035 21.3348 12.6305C21.5641 12.1105 21.8505 10.6658 20.7619 9.79844C21.2203 8.00644 19.387 6.96635 18.4123 6.90857C17.9533 6.5612 17.3231 6.33007 16.4631 6.27228C17.094 5.34708 16.9214 4.13362 16.176 3.44021C16.2333 2.45788 15.5457 1.53268 14.5712 1.18598C14.2274 0.377005 12.3934 0.492573 12.2215 1.24376C11.133 1.64825 10.5022 2.80459 10.6167 3.90248C9.98586 4.59589 9.98586 5.75223 10.6167 6.5612C10.0431 6.50342 9.24108 6.67677 8.72545 6.9079H8.66816C8.20982 6.67677 7.75079 6.5612 7.23516 6.67677C7.12059 6.5612 6.77688 6.44563 6.54768 6.38785C6.37713 6.09893 6.14731 5.8678 5.80355 5.69444C5.68897 5.17439 5.28793 4.7699 4.88689 4.59589C4.94418 4.1914 4.7723 3.72913 4.65772 3.498C4.42855 3.15129 4.48584 2.57345 4.54314 2.45788C4.82959 2.16897 4.60043 1.88005 4.48584 1.76382C3.91227 1.18598 3.33935 1.47489 3.16748 1.76382C2.59457 0.723708 1.96436 0.492573 1.61995 0.60814C1.10432 0.203653 0.359529 0.492573 0.359529 0.954843C0.0157784 1.18598 -0.213388 1.30154 0.302237 2.22675C0.187653 4.13362 0.41682 4.71212 1.6779 5.75223C1.2762 6.15671 1.10432 6.96569 1.44807 7.60199C1.33349 8.52721 1.84911 9.45175 2.47998 9.91402C2.65186 11.243 3.91227 11.9949 4.7723 12.1682C5.34522 13.035 6.14731 13.4395 6.95002 13.4973C7.00737 13.9017 7.12194 14.2484 7.35108 14.5952C7.17923 15.3464 7.17923 16.0404 7.40837 16.676C6.83545 17.3116 6.6063 18.2946 6.89273 19.277C6.20525 20.0859 5.97543 21.4156 6.43442 22.5135C6.43442 22.5135 6.26255 22.8031 6.14796 23.0913C5.68963 23.3232 5.2313 23.8432 5.00213 24.5366C4.77296 25.0567 4.88755 25.7501 5.00213 26.3286C4.25734 26.9642 3.79835 28.5828 5.11672 29.8541C4.83026 30.7799 4.20005 31.5883 3.45525 32.5712C2.93963 33.2646 2.82439 33.6114 3.45525 34.421C3.91359 35.0566 4.77297 35.5766 5.51841 35.5766C6.89341 35.6345 7.868 35.3449 7.98264 34.3047C8.09721 33.7269 7.69614 32.5134 7.69614 32.2239C7.63886 31.9349 7.75343 31.4727 8.03992 30.7208C9.301 30.4319 9.93121 29.5073 10.0451 28.5822C10.9624 28.0621 11.65 26.9635 11.3062 25.7494C11.478 25.576 11.5353 25.4034 11.65 25.1138C11.65 25.6339 11.9937 25.9812 12.1656 26.3279C11.65 27.657 12.3374 28.871 13.1395 29.3911C11.7639 31.4142 13.2541 32.3965 13.6551 32.801C14.1708 33.2633 14.2281 34.1307 15.0301 34.4203C15.7177 34.6514 17.8961 34.4203 18.2964 33.4951C18.411 33.2633 18.5256 32.9751 18.411 32.801C18.411 32.1076 18.01 31.6453 17.2645 31.1824C16.4045 30.7201 16.4045 30.8364 16.0034 29.5638C17.3218 28.9282 17.551 27.4251 17.4937 26.8473C18.411 25.6909 18.3537 24.708 17.8374 24.0723C18.0093 23.5523 17.9521 23.1471 17.8374 22.7433C18.6395 22.0492 18.9833 21.0091 18.6968 19.9106C19.1552 19.2172 19.2697 18.466 19.0978 17.5986C19.4989 18.2349 20.1291 18.466 20.8173 18.466C20.8173 18.466 20.8745 18.6387 20.9318 18.7549C20.7027 19.1588 20.8173 19.6223 21.3329 19.9684C21.3902 20.2002 21.5047 20.3151 21.6194 20.4307C21.6194 20.604 22.0777 21.3559 22.5933 20.9507C22.6506 20.9507 23.2242 20.5462 23.2242 20.5462C23.7411 20.9533 24.8869 20.6066 24.773 19.8554Z" fill="#040506"/>
<path fill-rule="evenodd" clip-rule="evenodd" d="M19.444 16.0403C20.8763 15.9247 22.2519 14.3061 20.9342 13.0349C20.7624 13.3238 20.3606 13.6128 20.0742 13.7283C20.0169 14.364 19.6159 14.884 19.3867 15.1736C19.3867 15.4047 19.444 15.9826 19.444 16.0403Z" fill="white"/>
<path fill-rule="evenodd" clip-rule="evenodd" d="M21.7911 14.8269C21.4474 15.7521 20.53 16.2722 19.4415 16.4455C19.2696 17.1967 20.2436 18.3531 21.7338 17.6596C22.8231 17.1967 23.2241 15.4625 21.7911 14.8269Z" fill="white"/>
<path fill-rule="evenodd" clip-rule="evenodd" d="M21.3923 18.9303C21.2778 19.0458 21.2778 19.3347 21.4496 19.5087C21.4496 19.4503 21.5642 19.1043 21.6215 18.9887C21.5642 18.8731 21.4496 18.8731 21.3923 18.9303Z" fill="white"/>
<path fill-rule="evenodd" clip-rule="evenodd" d="M22.3074 19.6243C22.2501 19.4503 22.3074 19.2199 22.0209 19.1614C21.7345 19.0458 21.7345 19.971 21.9063 19.9132C22.0209 19.7977 22.1355 19.6815 22.3074 19.6243Z" fill="white"/>
<path fill-rule="evenodd" clip-rule="evenodd" d="M22.711 19.7397C22.31 19.8553 22.0236 20.1442 22.1954 20.3754C22.2527 20.4909 22.31 20.4909 22.5392 20.3175C22.6538 20.2598 22.8829 20.0858 22.9402 20.028C22.8829 19.8553 22.711 19.7397 22.711 19.7397Z" fill="white"/>
<path fill-rule="evenodd" clip-rule="evenodd" d="M23.0528 17.948C22.9381 17.8901 22.709 17.7168 22.5944 17.5435C22.3079 17.8324 21.6777 18.1797 21.3906 18.2369C21.4479 18.2369 21.5052 18.5258 21.5625 18.6407C21.6771 18.6407 21.7917 18.7569 21.9063 18.8725C22.0208 18.8147 22.4219 18.8725 22.5371 19.277C22.709 19.3925 23.0528 19.5659 23.1673 19.6808C23.6257 20.2593 23.9701 20.2015 24.0846 20.0853C24.4857 19.7964 23.9128 19.5081 23.6263 19.1029C23.4544 18.9289 22.9961 18.2933 22.9961 18.12C22.9961 18.0622 23.1107 18.12 23.2253 18.2355C23.2253 18.2933 23.8555 19.0445 24.1992 19.3334C23.9121 18.3524 23.0528 17.948 23.0528 17.948Z" fill="white"/>
<path fill-rule="evenodd" clip-rule="evenodd" d="M14 16.619C19.4447 16.5612 20.1322 13.3246 19.3874 12.0527C17.7253 13.7869 12.1667 14.7693 9.41532 12.5728C8.89975 13.1507 8.21159 13.324 7.63867 13.4395C7.81053 15.0582 10.7331 16.6768 14 16.619Z" fill="white"/>
<path fill-rule="evenodd" clip-rule="evenodd" d="M10.3314 9.74079C10.446 10.8387 9.98763 11.8216 9.75781 12.1683C10.2734 12.5728 11.3053 13.324 13.655 13.3818C17.2084 13.4396 20.9903 11.7061 18.8698 8.75781C17.9538 9.97189 13.4264 11.012 10.3314 9.74079Z" fill="white"/>
<path fill-rule="evenodd" clip-rule="evenodd" d="M5.63282 9.39404C6.4922 8.58508 6.55014 7.54428 6.14844 6.79309C6.03452 6.67685 5.91928 6.50417 5.74806 6.38794C5.57619 7.89096 3.45574 9.04667 2.08008 8.06431C2.5957 10.203 4.71616 10.2608 5.63282 9.39404Z" fill="white"/>
<path fill-rule="evenodd" clip-rule="evenodd" d="M7.35161 10.8387C8.61269 9.39404 7.35161 7.1976 6.77869 7.08203C7.17969 9.2207 5.05925 10.8971 3.16797 10.0875C3.6263 11.4165 5.86134 12.515 7.35161 10.8387Z" fill="white"/>
<path fill-rule="evenodd" clip-rule="evenodd" d="M5.63281 12.168C6.72136 13.3236 9.64458 13.2659 9.81643 10.5493C9.931 8.69956 9.12894 7.6595 7.86786 7.31274C9.35808 10.1449 7.58137 12.1095 5.63281 12.168Z" fill="white"/>
<path fill-rule="evenodd" clip-rule="evenodd" d="M7.92497 15.0579C7.40934 18.1795 11.535 19.1611 13.9998 19.1041C18.1835 18.93 19.1001 16.9076 18.8709 15.6935C16.2349 17.7743 10.619 17.5432 7.92497 15.0579Z" fill="white"/>
<path fill-rule="evenodd" clip-rule="evenodd" d="M10.0455 21.6466C12.2805 22.1088 14.0572 21.0687 14.0572 19.5656C12.9686 19.5656 9.47255 19.5086 7.81108 17.1965C6.66458 18.8151 8.04022 21.0687 10.0455 21.6466Z" fill="white"/>
<path fill-rule="evenodd" clip-rule="evenodd" d="M13.0821 21.7052C11.0763 22.7453 8.32558 21.9941 7.29432 19.8555C5.80409 22.2253 8.2683 24.3639 10.1023 24.2484C12.3373 24.1321 12.9676 22.6875 13.0821 21.7052Z" fill="white"/>
<path fill-rule="evenodd" clip-rule="evenodd" d="M6.89341 22.9763C6.20593 24.2482 7.06533 25.635 7.98196 25.9817C9.93053 26.7329 11.2482 25.4617 11.1343 24.5365C9.58682 24.8838 7.98196 24.4216 6.89341 22.9763Z" fill="white"/>
<path fill-rule="evenodd" clip-rule="evenodd" d="M5.34548 26.8491C4.42816 27.6003 5.05902 29.6234 6.43403 30.0857C8.3826 30.7797 9.24201 29.4501 9.35658 28.756C8.84162 28.8722 6.60656 29.3345 5.34548 26.8491Z" fill="white"/>
<path fill-rule="evenodd" clip-rule="evenodd" d="M7.86782 26.3294C6.83655 25.8094 6.20568 24.9997 6.14839 23.9019C4.65815 25.4049 5.91922 27.774 7.2949 28.2363C10.0455 29.2186 11.0195 26.8495 10.7903 26.1554C9.70182 26.9073 8.38345 26.6183 7.86782 26.3294Z" fill="white"/>
<path fill-rule="evenodd" clip-rule="evenodd" d="M17.7231 33.2075L17.8377 33.2653C17.6085 33.7276 15.9465 34.1327 15.2583 33.8431C14.4562 33.4393 14.6274 32.9764 14.1118 32.5141C12.9659 31.4162 13.1378 30.9533 13.3097 30.3754C13.367 30.0858 13.4816 29.9131 13.7107 29.6235C14.5128 29.9131 14.8566 29.8547 15.5447 29.6814C15.5447 29.7391 15.5447 29.9131 15.602 29.9709C15.0864 30.0287 14.6281 30.1443 14.6281 30.1443L14.7999 30.5488C14.7999 30.5488 15.201 30.4332 15.7173 30.3754C15.7173 30.3754 15.7745 30.6643 15.8318 30.7799C15.3735 30.7799 14.9725 30.9533 14.9725 30.9533L15.087 31.2999C15.087 31.2999 15.7179 31.1259 16.1756 31.1837C16.6339 31.5882 18.4679 32.0511 17.5512 33.0334C17.2075 33.3802 16.3475 33.4957 15.66 33.4957V33.6113C15.7745 33.7853 17.0349 33.8431 17.7231 33.2075Z" fill="white"/>
<path fill-rule="evenodd" clip-rule="evenodd" d="M16.8645 27.2538C16.4061 27.6005 15.7187 27.8901 14.9166 27.8324C13.9426 27.8324 13.2545 27.4278 12.6815 26.7922C12.3378 28.5257 13.4263 29.3347 14.6295 29.3932C16.8072 29.5081 16.8645 27.485 16.8645 27.2538Z" fill="white"/>
<path fill-rule="evenodd" clip-rule="evenodd" d="M14.8608 27.4272C17.2104 27.4851 17.8986 25.5197 17.4402 24.6523C16.1218 26.2709 13.0847 25.9242 12.4545 23.9011C11.6518 25.347 12.9695 27.4272 14.8608 27.4272Z" fill="white"/>
<path fill-rule="evenodd" clip-rule="evenodd" d="M15.2018 25.289C16.3477 25.289 17.6087 24.4794 17.3223 23.0341C16.0039 23.9015 14.3418 23.8438 13.1959 22.9763C13.0813 23.1497 12.9095 23.4386 12.7949 23.5542C12.9668 24.6527 14.056 25.289 15.2018 25.289Z" fill="white"/>
<path fill-rule="evenodd" clip-rule="evenodd" d="M13.7683 21.2429C13.711 21.3007 13.6537 21.3585 13.5964 21.3585C13.5964 21.763 13.4818 22.2837 13.3672 22.6297C14.972 24.0172 18.3536 23.1498 18.1244 20.3184C16.9772 21.4741 15.1432 21.763 13.7683 21.2429Z" fill="white"/>
<path fill-rule="evenodd" clip-rule="evenodd" d="M14.513 19.5658C14.513 20.0859 14.3412 20.5481 14.0547 20.9533C16.1179 21.5889 18.6967 20.491 18.5821 18.0056C17.8946 18.6412 16.6335 19.4509 14.513 19.5658Z" fill="white"/>
<path fill-rule="evenodd" clip-rule="evenodd" d="M4.14324 7.83298C5.69078 7.13959 5.57619 5.52098 4.65887 5.11649C4.4297 5.34763 4.48699 5.86768 4.48699 5.98325C4.48699 6.21438 4.08595 6.38773 4.02866 6.27217C3.91342 6.09881 4.25783 5.92546 4.08595 5.52098C3.97137 5.17427 4.37241 5.00092 4.37241 4.42309C4.37241 4.07638 4.08595 3.55566 4.08595 3.44076C3.91342 3.09339 3.91342 2.45777 4.14324 2.16885C3.97137 1.9955 3.7422 1.82215 3.57033 2.16885C3.28387 2.57333 3.39845 3.09339 3.57033 3.49787C3.57033 3.55566 3.28387 3.49788 3.16928 3.96015L3.05404 4.1335H2.93946C2.88217 3.7868 2.99675 3.61345 3.11134 3.38231C3.05404 3.32453 2.93946 3.0356 2.93946 2.51556C2.71029 1.82149 2.19467 1.18586 1.85092 1.12808C2.13738 1.59035 2.65366 2.57267 2.71095 2.6889C2.82488 2.97783 2.59571 3.0356 2.59571 3.0356C2.19467 2.22663 1.79362 1.47478 1.44922 1.12808C1.22005 0.954726 0.990884 0.839159 0.8763 1.01251C0.990884 1.01251 1.10547 1.12808 1.22005 1.24365C1.5638 1.70592 2.30925 3.20896 2.30925 3.20896C2.30925 3.20896 2.25196 3.26674 2.13738 3.26674C2.02279 3.26674 1.90821 3.0356 1.73633 2.63112C1.50651 2.28375 1.16276 1.70592 0.990884 1.53257C0.819008 1.30143 0.704425 1.35922 0.589844 1.47478C0.704425 1.64813 0.819008 1.87927 0.819008 2.05262C1.10547 1.93705 1.44922 2.22597 1.50651 2.51489C1.50651 2.74602 1.62109 3.49721 1.79362 3.72901C1.73633 3.72901 1.56446 3.84458 1.56446 3.84458C1.39193 3.67123 1.27734 2.86225 1.22005 2.57333C1.22005 2.45777 1.16276 2.3422 0.990884 2.28442C0.8763 2.28442 0.8763 2.3422 0.8763 2.39998C0.761716 4.01859 0.8763 4.42309 2.30925 5.52098C2.42383 5.57875 2.53842 5.8099 2.653 6.04103C2.76758 6.21438 2.93946 6.5033 3.28321 6.44552L3.39779 6.56108C3.11134 6.85 2.653 6.67665 2.53842 6.56108C2.48113 6.44552 2.25196 6.09881 2.25196 6.09881C1.22005 7.13959 2.59571 8.58418 4.14324 7.83298Z" fill="white"/>
<path fill-rule="evenodd" clip-rule="evenodd" d="M5.74712 30.2014C5.17354 31.4733 4.60063 32.0512 3.97042 32.9764C3.51209 33.5542 3.68396 33.8432 3.97042 34.2476C4.54333 34.8832 5.51795 35.23 6.26274 34.9995V34.9417C5.34542 34.9995 4.60063 34.6521 4.19958 34.0743L4.25687 34.0165C5.28813 34.8255 6.66379 34.5943 7.17943 34.3054C7.35129 34.2476 7.40857 34.0743 7.40857 33.9016C7.35129 33.4393 7.12215 32.6875 7.06486 32.2823C7.00751 31.9934 7.12215 31.3578 7.40857 30.6637C6.95022 30.7215 6.03358 30.6066 5.74712 30.2014Z" fill="white"/>
<path fill-rule="evenodd" clip-rule="evenodd" d="M19.1003 8.23756C19.8451 8.75765 19.9603 9.79839 19.9603 10.2029C20.7051 8.75765 19.6166 7.89087 19.043 7.71753C19.1576 7.94863 19.1576 8.1798 19.1003 8.23756Z" fill="white"/>
<path fill-rule="evenodd" clip-rule="evenodd" d="M20.1888 12.9771C21.6211 12.1681 20.7044 10.4339 20.4752 10.3184C20.418 10.4917 20.2461 10.9546 19.7305 11.5325C20.0169 11.8785 20.1888 12.3985 20.1888 12.9771Z" fill="white"/>
<path fill-rule="evenodd" clip-rule="evenodd" d="M10.2161 9.22007C11.2474 9.68234 12.3366 9.8563 13.4258 9.8563C16.4056 9.8563 18.4688 8.9889 18.6407 8.12212C18.7553 7.37099 17.3796 6.90802 15.9474 6.79312C15.7181 7.02426 15.4317 7.13983 15.3165 7.13983C15.2592 7.13983 15.1446 7.08204 15.2592 7.02426C15.4883 6.90869 15.7175 6.67756 15.4883 6.27307C15.6602 6.27307 16.1758 6.04193 16.2331 5.11673C16.2331 4.36554 15.8894 3.90327 15.5456 3.67214C15.5456 3.67214 15.431 3.55657 15.5456 3.55657C15.6602 2.63203 15.03 1.88083 13.9408 1.64904V1.53281C13.9981 1.53281 13.9981 1.47502 13.9981 1.47502C13.9408 1.24389 13.1387 1.12832 12.7943 1.41724C12.737 1.47502 12.9662 1.59059 13.0234 1.59059C13.1381 1.59059 13.1954 1.70616 13.0807 1.70616C12.3932 1.64837 11.2468 2.22622 11.2468 3.78704C11.3041 3.78704 11.6478 3.72925 11.7624 3.72925C11.877 3.78704 11.8197 3.9026 11.7624 3.9026C10.6739 3.96039 10.2721 5.86726 11.7051 6.50354C11.7051 6.50354 11.8197 6.56133 11.7051 6.61911C11.5332 6.73468 11.4187 6.96581 11.6478 7.13916C11.7624 7.13916 11.8197 7.25473 11.7624 7.31249C11.7624 7.42807 11.5905 7.42807 11.4759 7.31249C10.7312 6.96581 9.87108 7.13916 9.18359 7.37032C9.70058 7.77544 10.0443 8.46888 10.2161 9.22007Z" fill="white"/>
<path fill-rule="evenodd" clip-rule="evenodd" d="M2.76693 4.36469C2.70964 4.42314 2.53776 4.24913 2.36589 4.13355C2.19401 4.07578 1.96484 4.07578 1.96484 4.01799C1.96484 4.01799 2.13672 3.96021 2.30859 3.96021C2.42318 3.96021 2.53776 4.01799 2.65235 4.01799C2.70964 4.13355 2.82422 4.30691 2.76693 4.36469Z" fill="#040506"/>
<path fill-rule="evenodd" clip-rule="evenodd" d="M6.54884 32.2822C6.20508 32.1666 5.6888 32.1089 5.40234 32.1089V31.7043C5.74609 31.7621 6.26238 31.8199 6.66342 31.9361L6.54884 32.2822Z" fill="#040506"/>
<path fill-rule="evenodd" clip-rule="evenodd" d="M6.77802 31.5312C6.26238 31.3579 6.14714 31.3579 5.57422 31.3001V30.9534C6.20443 30.9534 6.3763 30.9534 6.89192 31.1268L6.77802 31.5312Z" fill="#040506"/>
<path fill-rule="evenodd" clip-rule="evenodd" d="M14.9167 5.17424C14.8594 5.17424 14.8021 5.17424 14.7448 5.23203C13.7136 5.05868 13.4271 5.28981 12.8535 5.28981C12.8535 5.23203 12.8535 5.11646 12.7389 5.11646C12.7389 5.17424 12.6816 5.23203 12.6816 5.23203C12.5098 5.46316 12.4525 5.57873 12.5098 5.63651C12.567 5.6943 12.6816 5.57873 12.7389 5.52095C12.7963 5.52095 13.0254 5.52095 13.2545 5.63651C13.4265 5.75208 13.7702 6.21435 14.1139 6.041C14.4004 5.92543 14.6296 5.46316 14.8014 5.46316C14.916 5.46316 15.0306 5.52095 15.0306 5.46316C15.0885 5.46316 14.974 5.11646 14.9167 5.17424ZM14.1146 5.86765C13.7708 5.98322 13.5983 5.57873 13.3118 5.46316C13.5983 5.40538 14.1139 5.34759 14.5729 5.40538C14.4583 5.46316 14.1719 5.80986 14.1146 5.86765Z" fill="#040506"/>
<path fill-rule="evenodd" clip-rule="evenodd" d="M14.5143 2.51562C14.1705 2.57341 13.9414 3.03568 13.9414 3.61352C13.9987 3.96022 14.1133 4.30692 14.3425 4.48094C14.457 4.53872 14.5716 4.59651 14.6862 4.59651C15.03 4.53872 15.3164 4.07645 15.2591 3.49861C15.2591 3.15191 15.0872 2.80521 14.9153 2.68964C14.8007 2.57341 14.6862 2.51562 14.5143 2.51562Z" fill="#040506"/>
<path fill-rule="evenodd" clip-rule="evenodd" d="M14.9733 4.13339C15.0305 4.01782 15.0878 3.78669 15.0878 3.49777C15.0305 3.20885 14.9733 2.97772 14.8013 2.80436C14.744 2.74658 14.6295 2.74658 14.5722 2.74658C14.2858 2.74658 14.1138 3.15107 14.1711 3.61334C14.1711 3.67112 14.1711 3.67112 14.1711 3.7289C14.2284 3.43999 14.3431 3.20885 14.5722 3.15107C14.8013 3.15107 14.9733 3.43999 14.9733 3.78669C14.9733 3.90226 14.9733 4.01782 14.9733 4.13339Z" fill="white"/>
<path fill-rule="evenodd" clip-rule="evenodd" d="M12.9102 2.57324C12.5665 2.63103 12.2793 3.0933 12.2793 3.6718C12.2793 4.0185 12.3939 4.30742 12.6231 4.53856C12.7376 4.59634 12.8522 4.65412 13.0241 4.65412C13.3678 4.65412 13.655 4.13407 13.655 3.55623C13.655 3.20953 13.5404 2.92061 13.3112 2.74725C13.1973 2.63103 13.0821 2.57324 12.9102 2.57324Z" fill="#040506"/>
<path fill-rule="evenodd" clip-rule="evenodd" d="M13.3671 4.07594C13.4244 3.90259 13.4818 3.72924 13.4818 3.55589C13.4251 3.26697 13.3671 3.03583 13.1959 2.86248C13.1387 2.8047 13.0241 2.74691 12.9095 2.8047C12.6803 2.8047 12.4512 3.20918 12.4512 3.67212C12.4512 3.84547 12.5085 4.01882 12.623 4.13439C12.623 4.19217 12.623 4.19217 12.623 4.19217V4.13439C12.5657 4.0766 12.5657 4.01816 12.5657 3.90259C12.5657 3.55589 12.7376 3.26631 12.9667 3.26631C13.1959 3.26631 13.3671 3.55589 13.3671 3.90259C13.3671 3.96037 13.3671 4.01816 13.3671 4.07594Z" fill="white"/>
</g>
<defs>
<clipPath id="clip0_164_1976">
<rect width="140" height="35.1691" fill="white" transform="translate(0 0.415527)"/>
</clipPath>
</defs>
</svg>
