<svg width="173" height="100" viewBox="0 0 173 100" fill="none" xmlns="http://www.w3.org/2000/svg">
<path d="M435.851 -118.074C435.851 2.28278 338.283 99.8514 217.926 99.8514C97.5687 99.8514 0 2.28278 0 -118.074C0 -238.431 97.5687 -336 217.926 -336C338.283 -336 435.851 -238.431 435.851 -118.074ZM8.1721 -118.074C8.1721 -2.23056 102.082 91.6793 217.926 91.6793C333.769 91.6793 427.679 -2.23056 427.679 -118.074C427.679 -233.918 333.769 -327.828 217.926 -327.828C102.082 -327.828 8.1721 -233.918 8.1721 -118.074Z" fill="#E7E7E7"/>
<path d="M419.63 -117.725C419.63 -6.43372 329.411 83.786 218.119 83.786C106.827 83.786 16.6074 -6.43372 16.6074 -117.725C16.6074 -229.017 106.827 -319.237 218.119 -319.237C329.411 -319.237 419.63 -229.017 419.63 -117.725ZM25.5189 -117.725C25.5189 -11.3554 111.749 74.8745 218.119 74.8745C324.489 74.8745 410.719 -11.3554 410.719 -117.725C410.719 -224.095 324.489 -310.325 218.119 -310.325C111.749 -310.325 25.5189 -224.095 25.5189 -117.725Z" fill="#E7E7E7"/>
<path d="M408.043 -115.811C408.043 -12.7751 324.516 70.7517 221.48 70.7517C118.445 70.7517 34.918 -12.7751 34.918 -115.811C34.918 -218.846 118.445 -302.373 221.48 -302.373C324.516 -302.373 408.043 -218.846 408.043 -115.811ZM43.1684 -115.811C43.1684 -17.3317 123.001 62.5013 221.48 62.5013C319.96 62.5013 399.793 -17.3317 399.793 -115.811C399.793 -214.29 319.96 -294.123 221.48 -294.123C123.001 -294.123 43.1684 -214.29 43.1684 -115.811Z" fill="#E7E7E7"/>
<path d="M395.757 -114.518C395.757 -20.0535 319.179 56.5249 224.714 56.5249C130.25 56.5249 53.6719 -20.0535 53.6719 -114.518C53.6719 -208.982 130.25 -285.56 224.714 -285.56C319.179 -285.56 395.757 -208.982 395.757 -114.518ZM61.2359 -114.518C61.2359 -24.231 134.428 48.9608 224.714 48.9608C315.001 48.9608 388.193 -24.231 388.193 -114.518C388.193 -204.804 315.001 -277.996 224.714 -277.996C134.428 -277.996 61.2359 -204.804 61.2359 -114.518Z" fill="#E7E7E7"/>
</svg>
