<svg width="140" height="20" viewBox="0 0 140 20" fill="none" xmlns="http://www.w3.org/2000/svg">
<g clip-path="url(#clip0_164_1966)">
<path fill-rule="evenodd" clip-rule="evenodd" d="M41.4816 5.02808L39.418 16.4529H42.968L43.5515 12.9081L44.8597 11.7342L47.0647 16.3251H51.0938L47.5806 9.90947L52.5065 5.19079H48.1641L43.9937 9.94437L44.958 5.06295L41.4816 5.02808Z" fill="black"/>
<path fill-rule="evenodd" clip-rule="evenodd" d="M58.7722 4.89922C51.5063 5.06193 51.6414 11.8319 51.6414 11.8319C51.6414 11.8319 51.4018 16.2601 56.8436 16.4577C64.0113 16.1962 63.7656 9.55398 63.7656 9.55398C63.7656 9.55398 63.9745 4.86435 58.7722 4.89922ZM60.1173 10.2048C60.1173 10.2048 59.7058 14.017 57.1876 13.8833C54.6755 13.7555 55.3265 10.7278 55.3265 10.7278C55.3265 10.7278 55.7381 7.27602 58.287 7.40386C60.842 7.53171 60.1173 10.2048 60.1173 10.2048ZM66.216 5.28857C66.216 5.28857 66.2042 7.03191 65.9032 9.16464C65.4485 12.384 64.6316 16.4519 64.6316 16.4519L68.2122 16.417C68.2122 16.417 68.4823 11.9017 69.6681 9.89686C70.8906 7.82223 73.034 8.24648 73.034 8.24648L73.5868 4.9922C73.5868 4.9922 72.4076 4.77137 71.2035 5.47452C70.2268 6.04402 69.1764 7.56655 69.1764 7.56655L69.3486 5.28857H66.216ZM75.1346 5.41641L73.3777 16.4519H76.7864C76.7864 16.4519 77.37 7.36896 80.3672 7.79321C82.3634 7.72929 81.2637 11.5704 81.2637 11.5704L80.3672 16.324H83.7759L84.5008 11.6693C84.5008 11.6693 85.256 7.36896 87.3935 7.60145C89.1136 7.50262 88.3209 10.5652 88.3209 10.5652L87.2897 16.1672H90.7351L91.767 10.077C91.767 10.077 93.2163 4.80043 88.9414 4.80043C86.5647 4.76556 85.0168 6.9506 85.0168 6.9506C85.0168 6.9506 84.3661 4.96314 82.1609 5.0968C79.5443 5.25951 78.0641 7.11328 78.0641 7.11328L78.1686 5.42222L75.1346 5.41641ZM100.353 4.89922C93.0875 5.06193 93.2222 11.8319 93.2222 11.8319C93.2222 11.8319 92.983 16.2601 98.4246 16.4577C105.592 16.1962 105.347 9.55398 105.347 9.55398C105.347 9.55398 105.555 4.86435 100.353 4.89922ZM101.698 10.2048C101.698 10.2048 101.287 14.017 98.769 13.8833C96.2569 13.7496 96.9076 10.7278 96.9076 10.7278C96.9076 10.7278 97.3256 7.27602 99.8745 7.40386C102.423 7.53171 101.698 10.2048 101.698 10.2048ZM107.791 5.28857C107.791 5.28857 107.779 7.03191 107.478 9.16464C107.024 12.384 106.207 16.4519 106.207 16.4519L109.788 16.417C109.788 16.417 110.058 11.9017 111.243 9.89686C112.471 7.82223 114.609 8.24648 114.609 8.24648L115.161 4.9922C115.161 4.9922 113.982 4.77137 112.778 5.47452C111.802 6.04402 110.752 7.56655 110.752 7.56655L110.923 5.28857H107.791ZM127.212 5.32343C127.212 5.32343 125.381 4.74813 123.318 4.85854C121.352 4.96314 119.154 5.74765 119.154 5.74765C119.154 5.74765 114.916 7.92687 114.885 12.291C114.849 16.6553 118.607 16.4577 118.607 16.4577C118.607 16.4577 119.983 16.4112 120.953 15.8126C122.028 15.156 122.704 13.9472 122.704 13.9472L122.667 16.1613H125.873C125.873 16.1613 125.726 13.9995 126.064 11.2799C126.395 8.57771 127.212 5.32343 127.212 5.32343ZM120.014 13.7846C118.429 13.523 118.706 11.8319 118.706 11.8319C118.706 11.8319 118.589 10.5825 119.86 8.75785C121.137 6.93315 123.287 7.30504 123.287 7.30504C123.287 7.30504 122.735 14.2436 120.014 13.7846ZM132.758 5.22464H129.73L127.832 16.4577H131.45C131.45 16.4577 132.071 7.89197 135.135 7.63628C137.033 7.34576 136.234 10.5303 136.234 10.5303L135.166 16.295H138.679L139.711 10.4663C139.711 10.4663 141.332 5.02706 136.855 4.86435C134.478 4.70164 132.721 6.97962 132.721 6.97962L132.758 5.22464ZM36.1636 1.3079C36.0715 0.784892 35.5248 0.831382 35.5248 0.831382H21.515L15.4038 5.03869C15.4038 5.03869 14.8019 5.40479 14.808 5.88712C14.8203 6.36945 15.4406 6.96799 15.4406 6.96799L21.558 14.7202C21.558 14.7202 22.0064 15.2722 21.4352 15.6615C20.864 16.0567 20.4771 15.5453 20.4771 15.5453L14.3658 7.59563C14.3658 7.59563 13.7946 6.88086 13.0023 6.47986C12.1916 6.07308 11.1597 5.9801 11.1597 5.9801L0.933313 4.49244C0.933313 4.49244 0.141002 4.27742 0.0181623 4.80624C-0.104677 5.33506 0.435816 5.43385 0.435816 5.43385C0.435816 5.43385 4.64306 6.42756 7.47449 7.80484C9.91285 8.99033 11.0369 10.5884 11.0369 10.5884L17.8975 19.4039C17.8975 19.4039 18.0755 19.6248 18.2844 19.712C18.53 19.8165 18.8126 19.7933 18.8126 19.7933H25.882C25.882 19.7933 26.0539 19.834 26.3672 19.7003C26.6559 19.5783 27.0858 19.2877 27.0858 19.2877L28.8117 18.2069C28.8117 18.2069 29.3644 17.8756 29.3399 17.4805C29.3215 17.0911 28.8731 16.539 28.8731 16.539L21.2693 6.61354C21.2693 6.61354 21.0359 6.39851 21.0851 6.20092C21.1404 5.98591 21.4721 5.78833 21.4721 5.78833L25.2125 3.15005H26.5514C26.5514 3.15005 26.8524 3.27789 26.8156 3.45804C26.7848 3.63238 26.4164 3.85901 26.4164 3.85901L23.3822 6.02077C23.3822 6.02077 22.9891 6.21836 22.9768 6.50311C22.9645 6.82269 23.3392 7.24112 23.3392 7.24112L30.1568 16.1323C30.1568 16.1323 30.4393 16.4868 30.7771 16.5274C31.1211 16.5681 31.5264 16.2892 31.5264 16.2892L33.8112 14.7957C33.8112 14.7957 34.2964 14.54 34.321 14.1855C34.3394 13.8136 33.8972 13.3371 33.8972 13.3371L29.2846 7.43289C29.2846 7.43289 29.0267 7.2121 29.0144 7.02027C29.0021 6.84014 29.2417 6.68903 29.2417 6.68903L35.9793 1.97038C35.9855 1.97038 36.2619 1.83091 36.1636 1.3079ZM11.0492 8.38595C10.0726 8.38595 10.1033 7.46197 10.1033 7.46197C10.1033 7.46197 10.0849 6.60773 11.0062 6.60773C11.9336 6.60773 11.9643 7.49099 11.9643 7.49099C11.9643 7.49099 12.0257 8.38595 11.0492 8.38595Z" fill="black"/>
</g>
<defs>
<clipPath id="clip0_164_1966">
<rect width="140" height="19.6" fill="white" transform="translate(0 0.199951)"/>
</clipPath>
</defs>
</svg>
