<svg width="140" height="22" viewBox="0 0 140 22" fill="none" xmlns="http://www.w3.org/2000/svg">
<g clip-path="url(#clip0_164_1956)">
<path d="M1.75901 0.078125H0L9.97736 11.0001L10.0061 11.0317L9.97736 11.0632L0.0576725 21.9221H1.81668L11.7652 11.0317L1.75901 0.078125Z" fill="#E31F26"/>
<path d="M4.81611 0.078125H3.08594L13.0344 11.0001L13.0921 11.0317L13.0344 11.0632L3.1436 21.9221H4.90262L14.8511 11.0317L4.81611 0.078125Z" fill="#E31F26"/>
<path d="M7.90209 0.078125H6.17188L16.1204 11.0001L16.1492 11.0317L16.1204 11.0632L6.22954 21.9221H7.98852L17.9371 11.0317L7.90209 0.078125Z" fill="#E31F26"/>
<path d="M10.9855 0.078125H9.22656L19.2038 11.0001L19.2327 11.0317L19.2038 11.0632L9.31308 21.9221H11.072L20.9918 11.0317L10.9855 0.078125Z" fill="#E31F26"/>
<path d="M23.2415 10.0216L23.2127 10.0531L23.1838 10.0216L22.6071 9.39021L22.5783 9.32712L22.6071 9.29552L30.9984 0.078125H29.2394L21.6843 8.34853L21.6267 8.38009V8.34853L21.0499 7.71721L20.9923 7.65407L21.0211 7.6225L27.913 0.078125H26.1539L20.156 6.67551L20.1272 6.70707L20.0695 6.67551L19.4928 6.04418L19.4351 6.01261L19.4928 5.94948L24.8563 0.078125H23.0973L18.6277 4.97092L18.57 5.00249L18.5412 4.93936L17.9644 4.30802L17.9356 4.27646L17.9644 4.2449L21.7708 0.078125H20.0118L17.0705 3.2979L17.0417 3.32947L17.0129 3.2979L14.0715 0.078125H12.3125L22.2899 11.0001L22.3187 11.0317L22.2899 11.0948L12.399 21.9221H14.1292L24.1066 11.0001L34.0839 0.078125H32.3249L23.2415 10.0216Z" fill="#E31F26"/>
<path d="M45.6751 2.79297H42.8491L39.6772 9.9585L36.4763 2.79297H33.6504L38.4083 13.1783V19.3969H40.9171V13.1783L45.6751 2.79297Z" fill="black"/>
<path d="M46.1377 11.0949C46.1377 14.22 48.4734 16.7768 51.3281 16.7768C54.1829 16.7768 56.5187 14.22 56.5187 11.0949C56.5187 7.96981 54.1829 5.41292 51.3281 5.41292C48.4734 5.41292 46.1377 7.96981 46.1377 11.0949ZM51.3281 2.66665C55.5959 2.66665 59.0274 6.42306 59.0274 11.0949C59.0274 15.7667 55.5959 19.5231 51.3281 19.5231C47.0604 19.5231 43.6289 15.7667 43.6289 11.0949C43.6289 6.45462 47.0892 2.66665 51.3281 2.66665ZM70.3312 11.0949C70.3312 14.22 72.667 16.7768 75.5218 16.7768C78.3765 16.7768 80.7126 14.22 80.7126 11.0949C80.7126 7.96981 78.3765 5.41292 75.5218 5.41292C72.667 5.41292 70.3312 7.93824 70.3312 11.0949ZM75.5218 2.66665C76.5452 2.64475 77.5623 2.84647 78.5137 3.26002C79.4652 3.67357 80.3312 4.29063 81.0626 5.07512C81.7933 5.85961 82.3737 6.79576 82.7702 7.82884C83.1673 8.86192 83.3711 9.97117 83.3718 11.0917C83.3718 12.2122 83.1673 13.3215 82.7717 14.3548C82.3753 15.3881 81.7949 16.3244 81.0642 17.1092C80.3335 17.894 79.4676 18.5114 78.5164 18.9254C77.5651 19.3393 76.5481 19.5414 75.5246 19.5199C73.5088 19.4777 71.5886 18.5715 70.1766 16.9961C68.7645 15.4207 67.9733 13.3019 67.9729 11.0949C67.9725 8.88779 68.763 6.76863 70.1746 5.19268C71.586 3.61673 73.506 2.70976 75.5218 2.66665Z" fill="black"/>
<path d="M70.3032 2.66675H66.987L62.3155 9.7376V2.66675H59.6914V19.2391H62.3155V12.4208L66.7563 19.2391H70.0725L64.4206 11.1265L70.3032 2.66675ZM92.0169 2.79301V9.83237H86.5954V2.79301H83.8851V19.397H86.5954V12.6733H92.0169V19.397H94.7272V2.82459L92.0169 2.79301ZM100.351 12.8311L102.253 7.18075L104.157 12.8311H100.351ZM106.377 19.397H109.203L103.58 2.79301H100.898L95.3045 19.3654H98.1304L99.5139 15.1355H104.964L106.377 19.397ZM131.148 12.8311L133.051 7.18075L134.954 12.8311H131.148ZM137.175 19.397H140.001L134.435 2.79301H131.724L126.13 19.3654H128.985L130.369 15.1355H135.819L137.175 19.397ZM124.573 2.79301H122.583L122.007 2.82459L117.537 15.5143L113.067 2.79301L112.491 2.82459L110.53 2.79301L109.751 2.82459V19.397H112.462L112.491 8.53811L116.268 19.397H118.806L122.583 8.53811L122.641 19.397H125.352V2.79301H124.573Z" fill="black"/>
</g>
<defs>
<clipPath id="clip0_164_1956">
<rect width="140" height="21.844" fill="white" transform="translate(0 0.078125)"/>
</clipPath>
</defs>
</svg>
