<svg width="140" height="26" viewBox="0 0 140 26" fill="none" xmlns="http://www.w3.org/2000/svg">
<g clip-path="url(#clip0_164_1970)">
<path d="M140 20.0637H121.093V19.4097H140V20.0637ZM130.482 16.4011L132.283 14.6352L132.99 15.3546L131.061 16.9897C130.932 17.1859 130.804 17.5129 130.675 17.7092H129.261C129.389 17.2513 130.096 16.5973 130.482 16.4011ZM124.566 5.28237C124.501 5.28237 123.087 5.67479 123.087 5.67479C123.087 5.67479 122.444 5.93641 122.122 6.13262C121.801 6.32884 121.479 6.65586 121.479 6.85207L122.765 7.17906C122.958 6.98288 123.151 6.72126 123.344 6.59045L123.665 6.45965L124.694 5.34777C124.694 5.34777 124.63 5.28237 124.566 5.28237ZM133.119 8.81419C132.338 7.96026 131.628 7.04142 130.997 6.06722C131.447 5.21697 131.704 3.05863 131.511 2.20838C131.447 1.94677 130.74 1.03111 130.611 0.834896C130.418 0.70409 129.84 0.0500488 129.582 0.0500488C129.518 0.0500488 129.453 0.0500488 129.453 0.115453L129.517 0.834896C128.746 1.35813 127.782 2.01217 126.881 2.66621C126.881 2.92783 126.881 3.32025 126.945 3.45106C127.074 3.58186 127.267 3.64727 127.396 3.71267C127.717 3.64727 128.811 3.38565 129.132 3.38565L128.038 5.02076L126.817 5.93641L125.273 5.41318C125.145 5.41318 125.08 5.41318 125.016 5.47858L123.923 6.72126C123.859 6.78667 123.794 6.85207 123.794 6.98288L123.73 8.35639V8.81419C123.73 9.79524 124.18 10.3185 124.18 10.3185L124.888 9.20661C124.759 9.07578 124.63 8.61798 124.566 8.42177V7.24451L125.273 6.72126L127.203 8.09473C127.203 8.09473 127.717 9.07578 128.232 9.66441C128.553 10.0569 130.225 11.1687 130.997 11.692C131.061 12.1498 131.254 12.8038 131.382 13.1963L133.698 15.6162L132.348 17.3821C131.833 17.7092 131.382 18.2978 131.447 18.821H133.055L133.248 17.9054L135.177 15.747C135.306 15.6162 135.306 15.5508 135.241 15.42L134.727 13.5887C134.984 13.2616 135.563 12.4768 135.563 11.5611C135.498 9.79524 133.698 9.33744 133.119 8.81419ZM136.077 11.692C135.948 11.2342 135.756 10.7109 135.627 10.4493C135.627 10.4493 135.691 10.3839 135.884 10.4493C136.013 10.5801 137.042 11.2342 137.042 11.2342C137.556 11.9536 137.878 15.0276 137.878 16.1394C137.428 15.9432 136.785 15.5508 136.334 15.1584L136.077 11.692ZM86.8812 11.0379C86.8812 9.86069 86.4955 8.94502 85.5302 8.94502C84.5019 8.94502 84.1155 9.86069 84.1155 11.0379V18.821H85.2733V20.0637H78.778V18.821H80.0002V8.09473H78.778V6.91748H83.8586V8.94502H83.923C84.4375 7.83314 85.5309 6.65586 87.3313 6.65586C89.2605 6.65586 90.4183 7.83314 90.7396 9.40282C90.8684 9.99145 90.9328 11.0379 90.9328 11.5611V18.8864H92.4756V20.1291H86.8168L86.8812 11.0379ZM60.7717 11.0379C60.7717 9.86069 60.3858 8.94502 59.4212 8.94502C58.3922 8.94502 58.0064 9.86069 58.0064 11.0379V18.821H59.164V20.0637H52.6688V18.821H53.8907V8.09473H52.6688V6.91748H57.7492V8.94502H57.8135C58.328 7.83314 59.4212 6.65586 61.2219 6.65586C63.1511 6.65586 64.3087 7.83314 64.6302 9.40282C64.7588 9.99145 64.8232 11.0379 64.8232 11.5611V18.8864H66.3666V20.1291H60.7074L60.7717 11.0379ZM98.0063 8.09473V17.8399C98.0063 18.494 98.4564 18.6902 98.8421 18.6902C99.2285 18.6902 99.6142 18.5594 99.6142 18.5594V19.7366C99.6142 19.7366 98.8421 20.2599 97.1061 20.2599C95.1125 20.2599 93.891 19.2788 93.891 17.1205V8.09473H92.54V7.17906C94.0835 5.93641 95.8839 4.49753 97.2993 3.32025H98.0707V6.85207H100.064V8.02935L98.0063 8.09473ZM17.2347 0.0500488C17.2347 0.0500488 20.3858 3.25484 21.8007 4.88995V6.13262C20.4501 4.69374 17.6849 3.51646 15.1125 3.51646C9.26044 3.51646 5.59485 7.96397 5.59485 13.5233C5.59485 19.0172 9.06752 23.5301 15.1125 23.5301C18.135 23.5301 20.5145 22.0912 21.8649 20.5869V21.7642C20.0643 24.3149 16.7203 25.95 12.5402 25.95C5.14469 25.95 0 20.4561 0 13.4578C0 6.45965 5.65916 1.03111 12.5402 1.03111C14.2765 1.03111 15.8843 1.35813 17.2347 1.81596V0.0500488ZM76.9132 16.5319C76.3343 17.2513 75.4341 17.7745 74.0838 17.7745C72.926 17.7745 71.0612 17.1205 70.9968 14.0465H77.9422C77.9422 13.7849 78.0066 13.3271 78.0066 13.1309C78.0066 9.40282 76.5275 6.65586 72.6047 6.65586C68.6817 6.65586 66.6881 9.72986 66.6881 13.5233C66.6881 17.3167 68.6817 20.3253 72.6047 20.3253C75.1128 20.3253 76.72 19.148 77.6209 17.2513L76.9132 16.5319ZM70.9968 12.7385C70.9968 9.27199 71.2537 7.96397 72.4115 7.96397C73.5693 7.96397 73.8262 9.20661 73.8906 12.7385H70.9968ZM13.8907 13.4578C13.8907 9.40282 14.2765 7.63693 15.627 7.63693C16.9775 7.63693 17.3634 9.40282 17.3634 13.4578C17.3634 17.4475 16.9775 19.2788 15.627 19.2788C14.2122 19.2135 13.8907 17.4475 13.8907 13.4578ZM9.06752 13.4578C9.06752 17.4475 11.447 20.6523 15.5627 20.6523C19.6785 20.6523 22.0579 17.4475 22.0579 13.4578C22.0579 9.4682 19.6785 6.26343 15.5627 6.26343C11.447 6.26343 9.06752 9.4682 9.06752 13.4578ZM31.254 11.0379C31.254 9.86069 30.8682 8.94502 29.9035 8.94502C28.8746 8.94502 28.4887 9.86069 28.4887 11.0379V18.821H29.6463V20.0637H23.1511V18.821H24.373V8.09473H23.1511V6.91748H28.2315V8.94502H28.2958C28.8103 7.83314 29.9035 6.65586 31.7042 6.65586C33.6335 6.65586 34.791 7.83314 35.1126 9.40282C35.2411 9.99145 35.3055 11.0379 35.3055 11.5611V18.8864H36.8488V20.1291H31.1897L31.254 11.0379ZM45.9164 3.38565C45.9164 4.56293 46.9454 5.34777 48.4245 5.34777C49.9036 5.34777 50.9325 4.56293 50.9325 3.38565C50.9325 2.20838 49.9036 1.42353 48.4245 1.42353C46.9454 1.48894 45.9164 2.20838 45.9164 3.38565ZM42.3794 8.09473V17.8399C42.3794 18.494 42.8296 18.6902 43.2154 18.6902C43.6012 18.6902 43.9872 18.5594 43.9872 18.5594V19.7366C43.9872 19.7366 43.2154 20.2599 41.4791 20.2599C39.4855 20.2599 38.2637 19.2788 38.2637 17.1205V8.09473H36.9132V7.17906C38.3923 5.93641 40.193 4.56293 41.6077 3.32025H42.3794V6.85207H43.9872V8.02935H42.3794V8.09473ZM118.007 18.821H119.614V20.0637H113.955V3.25484H112.54V2.01217H118.07V18.821H118.007ZM107.074 13.5233C106.945 13.3925 106.688 13.2616 106.174 13.2616C104.952 13.2616 104.695 14.5043 104.695 15.747C104.695 16.9897 105.081 17.9707 106.11 17.9707C106.624 17.9707 106.945 17.7745 107.074 17.5783V13.5233ZM107.203 18.494C106.366 19.6059 105.402 20.3253 103.858 20.3253C101.737 20.3253 100.45 18.494 100.45 16.3357C100.45 13.7195 102.315 12.019 105.209 12.019C106.431 12.019 107.074 12.2806 107.074 12.2806V11.4304C107.074 9.86069 106.109 9.0104 104.695 9.0104C102.766 9.0104 101.737 10.5801 101.737 10.5801L101.029 9.66441C102.315 7.63693 104.308 6.65586 106.174 6.65586C109.325 6.65586 111.189 8.5526 111.189 11.4304V18.821H112.476V20.0637H107.267L107.203 18.494ZM45.1447 20.0637V18.821H46.3023V8.09473H45.1447V6.91748H50.418V18.821H51.6398V20.0637H45.1447Z" fill="black"/>
</g>
<defs>
<clipPath id="clip0_164_1970">
<rect width="140" height="25.9" fill="white" transform="translate(0 0.0500488)"/>
</clipPath>
</defs>
</svg>
