<svg width="382" height="319" viewBox="0 0 382 319" fill="none" xmlns="http://www.w3.org/2000/svg">
<path d="M170.956 105.137C135.063 16.3575 155.645 -75.6973 216.928 -100.473C278.21 -125.25 356.986 -73.3648 392.879 15.4144C428.772 104.194 408.19 196.248 346.907 221.024C285.625 245.801 206.849 193.916 170.956 105.137ZM387.699 17.5087C353.482 -67.1258 278.383 -116.588 219.962 -92.9688C161.54 -69.3493 141.919 18.4078 176.136 103.042C210.353 187.677 285.452 237.139 343.873 213.52C402.295 189.9 421.916 102.143 387.699 17.5087Z" fill="url(#paint0_linear_164_1837)"/>
<path d="M154.382 111.837C117.629 20.9318 137.514 -72.8468 198.797 -97.623C260.079 -122.399 339.553 -68.7905 376.305 22.1151C413.058 113.021 393.172 206.799 331.89 231.576C270.607 256.352 191.134 202.743 154.382 111.837ZM371.125 24.2095C336.088 -62.4522 260.325 -113.558 201.904 -89.9386C143.482 -66.3191 124.525 23.0814 159.562 109.743C194.599 196.405 270.362 247.511 328.783 223.891C387.205 200.272 406.162 110.871 371.125 24.2095Z" fill="url(#paint1_linear_164_1837)"/>
<path d="M135.77 118.8C98.4801 26.5658 117.93 -68.2902 179.212 -93.0663C240.495 -117.842 320.404 -63.1565 357.694 29.0781C394.983 121.313 375.534 216.169 314.251 240.945C252.969 265.721 173.06 211.035 135.77 118.8ZM352.513 31.1725C316.964 -56.7561 240.786 -108.889 182.365 -85.2696C123.943 -61.6501 105.401 28.7775 140.95 116.706C176.499 204.635 252.677 256.768 311.099 233.148C369.52 209.529 388.062 119.101 352.513 31.1725Z" fill="url(#paint2_linear_164_1837)"/>
<path d="M117.743 127.209C79.8084 33.3798 98.7356 -62.7691 160.018 -87.5452C221.301 -112.321 301.732 -56.3425 339.667 37.487C377.601 131.317 358.674 227.465 297.392 252.242C236.109 277.018 155.678 221.039 117.743 127.209ZM334.486 39.5814C298.323 -49.8677 221.646 -103.233 163.225 -79.6137C104.803 -55.9942 86.7597 35.6659 122.923 125.115C159.087 214.564 235.764 267.929 294.185 244.31C352.607 220.691 370.65 129.03 334.486 39.5814Z" fill="url(#paint3_linear_164_1837)"/>
<path d="M103.654 134.024C65.5043 39.6628 84.2552 -56.9162 145.535 -81.6914C206.815 -106.467 287.419 -50.0559 325.569 44.3052C363.718 138.666 344.967 235.245 283.687 260.02C222.407 284.796 141.804 228.385 103.654 134.024ZM320.388 46.3995C284.02 -43.5563 207.179 -97.3334 148.76 -73.7149C90.3409 -50.0964 72.4654 41.9738 108.834 131.93C145.203 221.885 222.043 275.663 280.462 252.044C338.882 228.426 356.757 136.355 320.388 46.3995Z" fill="url(#paint4_linear_164_1837)"/>
<path d="M87.3082 140.635C49.1586 46.2739 67.9095 -50.3051 129.19 -75.0803C190.47 -99.8554 271.073 -43.4448 309.223 50.9163C347.372 145.277 328.622 241.856 267.342 266.632C206.061 291.407 125.458 234.996 87.3082 140.635ZM304.043 53.0106C267.674 -36.9453 190.834 -90.7223 132.414 -67.1038C73.9952 -43.4853 56.1197 48.5849 92.4883 138.541C128.857 228.497 205.698 282.274 264.117 258.655C322.536 235.037 340.411 142.966 304.043 53.0106Z" fill="url(#paint5_linear_164_1837)"/>
<path d="M69.0758 148.004C30.9262 53.6425 49.6771 -42.9365 110.957 -67.7116C172.237 -92.4868 252.841 -36.0762 290.99 58.2849C329.14 152.646 310.389 249.225 249.109 274C187.829 298.775 107.225 242.365 69.0758 148.004ZM279.507 62.9276C245.306 -21.6676 173.044 -72.24 118.106 -50.029C63.1682 -27.8179 46.3579 58.7657 80.5593 143.361C114.761 227.956 187.022 278.529 241.96 256.318C296.898 234.107 313.708 147.523 279.507 62.9276Z" fill="url(#paint6_linear_164_1837)"/>
<defs>
<linearGradient id="paint0_linear_164_1837" x1="232.252" y1="80.355" x2="181.643" y2="100.816" gradientUnits="userSpaceOnUse">
<stop stop-color="#CCCCCC"/>
<stop offset="1" stop-color="#CDCDCD" stop-opacity="0"/>
</linearGradient>
<linearGradient id="paint1_linear_164_1837" x1="215.678" y1="87.0558" x2="165.069" y2="107.517" gradientUnits="userSpaceOnUse">
<stop stop-color="#CCCCCC"/>
<stop offset="1" stop-color="#CDCDCD" stop-opacity="0"/>
</linearGradient>
<linearGradient id="paint2_linear_164_1837" x1="197.066" y1="94.0188" x2="146.458" y2="114.48" gradientUnits="userSpaceOnUse">
<stop stop-color="#CCCCCC"/>
<stop offset="1" stop-color="#CDCDCD" stop-opacity="0"/>
</linearGradient>
<linearGradient id="paint3_linear_164_1837" x1="179.039" y1="102.428" x2="128.431" y2="122.888" gradientUnits="userSpaceOnUse">
<stop stop-color="#CCCCCC"/>
<stop offset="1" stop-color="#CDCDCD" stop-opacity="0"/>
</linearGradient>
<linearGradient id="paint4_linear_164_1837" x1="164.948" y1="109.243" x2="114.341" y2="129.703" gradientUnits="userSpaceOnUse">
<stop stop-color="#CCCCCC"/>
<stop offset="1" stop-color="#CDCDCD" stop-opacity="0"/>
</linearGradient>
<linearGradient id="paint5_linear_164_1837" x1="148.602" y1="115.854" x2="97.9953" y2="136.314" gradientUnits="userSpaceOnUse">
<stop stop-color="#CCCCCC"/>
<stop offset="1" stop-color="#CDCDCD" stop-opacity="0"/>
</linearGradient>
<linearGradient id="paint6_linear_164_1837" x1="130.37" y1="123.223" x2="79.7629" y2="143.683" gradientUnits="userSpaceOnUse">
<stop stop-color="#CCCCCC"/>
<stop offset="1" stop-color="#CDCDCD" stop-opacity="0"/>
</linearGradient>
</defs>
</svg>
