<svg width="397" height="258" viewBox="0 0 397 258" fill="none" xmlns="http://www.w3.org/2000/svg">
<path d="M208.62 216.227C257.311 298.684 250.641 392.776 193.723 426.386C136.804 459.997 51.1902 420.399 2.49908 337.941C-46.1921 255.484 -39.5224 161.392 17.3963 127.782C74.3149 94.1711 159.929 133.769 208.62 216.227ZM7.31049 335.1C53.7285 413.708 135.345 451.457 189.607 419.416C243.868 387.374 250.226 297.676 203.808 219.068C157.39 140.46 75.7736 102.71 21.5122 134.752C-32.7492 166.793 -39.1075 256.492 7.31049 335.1Z" fill="url(#paint0_linear_164_1845)"/>
<path d="M224.013 207.137C273.87 291.569 268.146 387.262 211.227 420.872C154.309 454.483 67.7494 413.283 17.892 328.851C-31.9654 244.419 -26.2411 148.726 30.6775 115.115C87.5962 81.5049 174.155 122.704 224.013 207.137ZM22.7034 326.01C70.2333 406.5 152.751 445.776 207.013 413.735C261.274 381.694 266.731 290.468 219.201 209.978C171.671 129.487 89.1534 90.2112 34.892 122.253C-19.3693 154.294 -24.8264 245.519 22.7034 326.01Z" fill="url(#paint1_linear_164_1845)"/>
<path d="M241.381 197.484C291.968 283.151 286.834 379.844 229.916 413.455C172.997 447.065 85.8469 404.866 35.2606 319.199C-15.3257 233.532 -10.1923 136.839 46.7264 103.228C103.645 69.6177 190.795 111.818 241.381 197.484ZM40.0721 316.358C88.2967 398.025 171.378 438.255 225.639 406.213C279.901 374.172 284.795 281.993 236.57 200.325C188.345 118.658 105.264 78.4283 51.0025 110.47C-3.25889 142.511 -8.15262 234.69 40.0721 316.358Z" fill="url(#paint2_linear_164_1845)"/>
<path d="M257.957 186.489C309.418 273.637 304.994 371.531 248.075 405.142C191.157 438.752 103.298 395.352 51.8366 308.204C0.375601 221.056 4.79989 123.161 61.7185 89.551C118.637 55.9404 206.496 99.3411 257.957 186.489ZM56.648 305.363C105.707 388.442 189.464 429.817 243.725 397.775C297.987 365.734 302.204 272.41 253.146 189.33C204.087 106.251 120.33 64.8763 66.0686 96.9177C11.8072 128.959 7.58949 222.283 56.648 305.363Z" fill="url(#paint3_linear_164_1845)"/>
<path d="M270.879 177.656C322.632 265.298 318.446 363.591 261.529 397.2C204.613 430.809 116.519 387.007 64.7669 299.366C13.0143 211.724 17.2004 113.43 74.1167 79.8212C131.033 46.212 219.127 90.0141 270.879 177.656ZM69.5781 296.525C118.915 380.075 202.895 421.832 257.155 389.792C311.414 357.752 315.405 264.047 266.068 180.497C216.732 96.9468 132.751 55.1896 78.4915 87.2297C24.2323 119.27 20.2416 212.974 69.5781 296.525Z" fill="url(#paint4_linear_164_1845)"/>
<path d="M286.059 168.689C337.812 256.33 333.625 354.624 276.709 388.233C219.793 421.842 131.699 378.04 79.9466 290.398C28.194 202.756 32.3801 104.463 89.2964 70.8539C146.213 37.2448 234.306 81.0469 286.059 168.689ZM84.7578 287.557C134.094 371.107 218.075 412.865 272.334 380.824C326.594 348.784 330.584 255.08 281.248 171.53C231.911 87.9795 147.93 46.2223 93.6712 78.2624C39.412 110.303 35.4213 204.007 84.7578 287.557Z" fill="url(#paint5_linear_164_1845)"/>
<path d="M302.995 158.692C354.747 246.333 350.561 344.627 293.645 378.236C236.728 411.845 148.635 368.043 96.8821 280.401C45.1295 192.759 49.3156 94.466 106.232 60.8569C163.148 27.2477 251.242 71.0498 302.995 158.692ZM107.548 274.103C153.944 352.674 232.921 391.943 283.947 361.812C334.972 331.682 338.725 243.561 292.329 164.99C245.932 86.4184 166.956 47.1496 115.93 77.2804C64.9042 107.411 61.1514 195.532 107.548 274.103Z" fill="url(#paint6_linear_164_1845)"/>
<defs>
<linearGradient id="paint0_linear_164_1845" x1="151.688" y1="249.845" x2="198.693" y2="222.088" gradientUnits="userSpaceOnUse">
<stop stop-color="#CCCCCC"/>
<stop offset="1" stop-color="#CDCDCD" stop-opacity="0"/>
</linearGradient>
<linearGradient id="paint1_linear_164_1845" x1="167.081" y1="240.755" x2="214.086" y2="212.998" gradientUnits="userSpaceOnUse">
<stop stop-color="#CCCCCC"/>
<stop offset="1" stop-color="#CDCDCD" stop-opacity="0"/>
</linearGradient>
<linearGradient id="paint2_linear_164_1845" x1="184.45" y1="231.102" x2="231.455" y2="203.346" gradientUnits="userSpaceOnUse">
<stop stop-color="#CCCCCC"/>
<stop offset="1" stop-color="#CDCDCD" stop-opacity="0"/>
</linearGradient>
<linearGradient id="paint3_linear_164_1845" x1="201.026" y1="220.107" x2="248.031" y2="192.351" gradientUnits="userSpaceOnUse">
<stop stop-color="#CCCCCC"/>
<stop offset="1" stop-color="#CDCDCD" stop-opacity="0"/>
</linearGradient>
<linearGradient id="paint4_linear_164_1845" x1="213.95" y1="211.273" x2="260.953" y2="183.517" gradientUnits="userSpaceOnUse">
<stop stop-color="#CCCCCC"/>
<stop offset="1" stop-color="#CDCDCD" stop-opacity="0"/>
</linearGradient>
<linearGradient id="paint5_linear_164_1845" x1="229.13" y1="202.305" x2="276.133" y2="174.55" gradientUnits="userSpaceOnUse">
<stop stop-color="#CCCCCC"/>
<stop offset="1" stop-color="#CDCDCD" stop-opacity="0"/>
</linearGradient>
<linearGradient id="paint6_linear_164_1845" x1="246.065" y1="192.308" x2="293.068" y2="164.553" gradientUnits="userSpaceOnUse">
<stop stop-color="#CCCCCC"/>
<stop offset="1" stop-color="#CDCDCD" stop-opacity="0"/>
</linearGradient>
</defs>
</svg>
