<svg width="32" height="31" viewBox="0 0 32 31" fill="none" xmlns="http://www.w3.org/2000/svg">
<path d="M11.9993 29.2399C12.7357 29.2399 13.3327 28.643 13.3327 27.9066C13.3327 27.1702 12.7357 26.5732 11.9993 26.5732C11.263 26.5732 10.666 27.1702 10.666 27.9066C10.666 28.643 11.263 29.2399 11.9993 29.2399Z" fill="#4B4B4B" stroke="#4B4B4B" stroke-width="2.5" stroke-linecap="round" stroke-linejoin="round"/>
<path d="M26.6663 29.2399C27.4027 29.2399 27.9997 28.643 27.9997 27.9066C27.9997 27.1702 27.4027 26.5732 26.6663 26.5732C25.93 26.5732 25.333 27.1702 25.333 27.9066C25.333 28.643 25.93 29.2399 26.6663 29.2399Z" fill="#4B4B4B" stroke="#4B4B4B" stroke-width="2.5" stroke-linecap="round" stroke-linejoin="round"/>
<path d="M1.33301 1.23999H6.66634L10.2397 19.0933C10.3616 19.7072 10.6956 20.2586 11.1831 20.6511C11.6706 21.0435 12.2806 21.252 12.9063 21.24H25.8663C26.4921 21.252 27.1021 21.0435 27.5896 20.6511C28.0771 20.2586 28.4111 19.7072 28.533 19.0933L30.6663 7.90666H7.99967" stroke="#4B4B4B" stroke-width="2.5" stroke-linecap="round" stroke-linejoin="round"/>
</svg>
