<svg width="293" height="372" viewBox="0 0 293 372" fill="none" xmlns="http://www.w3.org/2000/svg">
<path d="M674 337C674 523.12 523.12 674 337 674C150.88 674 0 523.12 0 337C0 150.88 150.88 0 337 0C523.12 0 674 150.88 674 337ZM12.6373 337C12.6373 516.141 157.859 661.363 337 661.363C516.141 661.363 661.363 516.141 661.363 337C661.363 157.859 516.141 12.6373 337 12.6373C157.859 12.6373 12.6373 157.859 12.6373 337Z" fill="#FF0000" fill-opacity="0.56"/>
<path d="M648.918 337.54C648.918 509.641 509.402 649.157 337.301 649.157C165.199 649.157 25.6836 509.641 25.6836 337.54C25.6836 165.439 165.199 25.9229 337.301 25.9229C509.402 25.9229 648.918 165.439 648.918 337.54ZM39.4643 337.54C39.4643 502.03 172.81 635.376 337.301 635.376C501.791 635.376 635.137 502.03 635.137 337.54C635.137 173.049 501.791 39.7036 337.301 39.7036C172.81 39.7036 39.4643 173.049 39.4643 337.54Z" fill="#FF0000" fill-opacity="0.56"/>
<path d="M631 340.5C631 499.834 501.834 629 342.5 629C183.166 629 54 499.834 54 340.5C54 181.166 183.166 52 342.5 52C501.834 52 631 181.166 631 340.5ZM66.7584 340.5C66.7584 492.788 190.212 616.242 342.5 616.242C494.788 616.242 618.242 492.788 618.242 340.5C618.242 188.212 494.788 64.7584 342.5 64.7584C190.212 64.7584 66.7584 188.212 66.7584 340.5Z" fill="#FF0000" fill-opacity="0.56"/>
<path d="M612 342.5C612 488.579 493.579 607 347.5 607C201.421 607 83 488.579 83 342.5C83 196.421 201.421 78 347.5 78C493.579 78 612 196.421 612 342.5ZM94.697 342.5C94.697 482.119 207.881 595.303 347.5 595.303C487.119 595.303 600.303 482.119 600.303 342.5C600.303 202.881 487.119 89.697 347.5 89.697C207.881 89.697 94.697 202.881 94.697 342.5Z" fill="#FF0000" fill-opacity="0.56"/>
</svg>
