<svg width="191" height="50" viewBox="0 0 191 50" fill="none" xmlns="http://www.w3.org/2000/svg">
<path d="M41.2261 37.8986L40.998 38.118L41.8052 33.9856H42.6475L41.8403 38.118L41.6736 37.8986H44.1215L43.8758 38.118L44.683 33.9856H45.5252L44.604 38.6356H37.9799L38.9099 33.9856H39.7521L38.9362 38.118L38.787 37.8986H41.2261ZM46.2395 38.6356L47.1783 33.9856H48.0293L47.3274 37.4599L50.8369 33.9856H51.6353L50.7141 38.6356H49.8543L50.5649 35.1612L47.0554 38.6356H46.2395ZM52.3485 38.6356L53.2785 33.9856H54.1208L53.726 35.9596H56.3757L56.7705 33.9856H57.6127L56.6827 38.6356H55.8405L56.2353 36.6879H53.5856L53.1908 38.6356H52.3485ZM58.3119 38.6356L59.2419 33.9856H60.0842L59.6894 35.9596H62.339L62.7339 33.9856H63.5761L62.6461 38.6356H61.8038L62.1987 36.6879H59.549L59.1542 38.6356H58.3119ZM68.8815 38.6356L69.8027 33.9856H70.645L69.7238 38.6356H68.8815ZM66.9249 35.556C67.4514 35.556 67.8462 35.6643 68.1094 35.8807C68.3785 36.0912 68.513 36.41 68.513 36.837C68.513 37.1997 68.4223 37.5184 68.241 37.7933C68.0597 38.0624 67.8023 38.27 67.4689 38.4163C67.1414 38.5625 66.7524 38.6356 66.302 38.6356H64.2753L65.2053 34.0031H66.0388L65.7317 35.556H66.9249ZM66.302 38.0039C66.5769 38.0039 66.8167 37.96 67.0215 37.8723C67.2262 37.7787 67.3841 37.65 67.4952 37.4863C67.6122 37.3225 67.6707 37.1295 67.6707 36.9072C67.6707 36.4217 67.3373 36.179 66.6705 36.179H65.6089L65.2492 38.0039H66.302ZM71.3525 38.6356L72.2913 33.9856H73.1424L72.4405 37.4599L75.9499 33.9856H76.7483L75.8271 38.6356H74.9673L75.678 35.1612L72.1685 38.6356H71.3525ZM74.6514 33.3538C74.2069 33.3538 73.8793 33.2515 73.6688 33.0468C73.4582 32.8362 73.388 32.5408 73.4582 32.1606H74.0285C73.9876 32.3887 74.0285 32.5701 74.1513 32.7046C74.2742 32.8333 74.4555 32.8976 74.6953 32.8976C74.9351 32.8976 75.1369 32.8333 75.3007 32.7046C75.4703 32.5759 75.5814 32.3946 75.6341 32.1606H76.2132C76.1371 32.5525 75.9646 32.8508 75.6955 33.0555C75.4264 33.2544 75.0784 33.3538 74.6514 33.3538ZM79.8178 38.6356L80.7478 33.9856H81.5901L80.8092 37.8986H83.3536L84.1344 33.9856H84.9767L84.0467 38.6356H79.8178ZM83.7659 39.7148L84.0028 38.5918L84.1959 38.6356H83.2044L83.3536 37.8986H84.9241L84.5556 39.7148H83.7659ZM88.1392 38.6883C87.683 38.6883 87.2882 38.6064 86.9548 38.4426C86.6214 38.273 86.364 38.039 86.1827 37.7407C86.0014 37.4365 85.9107 37.0797 85.9107 36.6703C85.9107 36.1439 86.0248 35.676 86.2529 35.2665C86.481 34.8571 86.791 34.5354 87.1829 34.3014C87.5806 34.0616 88.031 33.9417 88.534 33.9417C88.9552 33.9417 89.3208 34.0236 89.6308 34.1873C89.9408 34.3453 90.1806 34.5734 90.3502 34.8717C90.5257 35.17 90.6134 35.5297 90.6134 35.9509C90.6134 36.0561 90.6076 36.1644 90.5959 36.2755C90.5842 36.3808 90.5695 36.4802 90.552 36.5738H86.5249L86.6302 35.9596H90.1484L89.8062 36.1702C89.8589 35.8427 89.8355 35.5677 89.736 35.3455C89.6366 35.1174 89.4787 34.9448 89.2623 34.8278C89.0517 34.705 88.7973 34.6436 88.499 34.6436C88.148 34.6436 87.838 34.7284 87.5689 34.898C87.3057 35.0618 87.101 35.2928 86.9548 35.5911C86.8086 35.8836 86.7354 36.2287 86.7354 36.6264C86.7354 37.0476 86.8553 37.3751 87.0952 37.6091C87.3408 37.8372 87.7122 37.9513 88.2094 37.9513C88.5019 37.9513 88.7739 37.9045 89.0254 37.8109C89.2769 37.7115 89.4845 37.5799 89.6483 37.4161L90.008 38.0215C89.7858 38.2379 89.5079 38.4046 89.1745 38.5216C88.8411 38.6327 88.496 38.6883 88.1392 38.6883ZM91.3333 38.6356L92.2633 33.9856H93.1056L92.7107 35.9596H95.3604L95.7552 33.9856H96.5975L95.6675 38.6356H94.8252L95.22 36.6879H92.5704L92.1755 38.6356H91.3333ZM98.2267 38.6356L99.0338 34.5032L99.1918 34.7225H97.3054L97.4458 33.9856H101.692L101.552 34.7225H99.6305L99.8761 34.5032L99.0689 38.6356H98.2267ZM104.308 38.6883C103.911 38.6883 103.568 38.6181 103.282 38.4777C103.001 38.3315 102.785 38.1238 102.633 37.8548C102.48 37.5799 102.404 37.2494 102.404 36.8633C102.404 36.2784 102.504 35.7695 102.703 35.3367C102.902 34.898 103.185 34.5558 103.554 34.3102C103.928 34.0645 104.373 33.9417 104.887 33.9417C105.285 33.9417 105.636 34.0206 105.94 34.1786C106.25 34.3365 106.493 34.5675 106.668 34.8717C106.85 35.17 106.94 35.5268 106.94 35.9421C106.94 36.3398 106.873 36.7054 106.739 37.0388C106.61 37.3722 106.426 37.6617 106.186 37.9074C105.952 38.1531 105.674 38.3461 105.352 38.4865C105.031 38.621 104.683 38.6883 104.308 38.6883ZM101.29 40.3377L102.554 33.9856H103.361L103.115 35.1876L102.843 36.2667L102.72 37.3722L102.132 40.3377H101.29ZM104.273 37.9513C104.624 37.9513 104.934 37.8665 105.203 37.6968C105.478 37.5272 105.695 37.2962 105.852 37.0037C106.01 36.7054 106.089 36.3662 106.089 35.986C106.089 35.5765 105.969 35.2577 105.73 35.0296C105.49 34.7957 105.148 34.6787 104.703 34.6787C104.358 34.6787 104.045 34.7635 103.764 34.9331C103.489 35.0969 103.273 35.3279 103.115 35.6262C102.963 35.9187 102.887 36.2579 102.887 36.644C102.887 37.0476 103.007 37.3664 103.247 37.6003C103.486 37.8343 103.829 37.9513 104.273 37.9513Z" fill="black"/>
<path d="M37.8242 28.9473L48.5999 15.896H54.2052L58.2159 28.9473H52.5381L49.808 17.9283H52.0308L43.8403 28.9473H37.8242ZM42.8013 26.6727L45.0725 23.5031H52.8522L53.4804 26.6727H42.8013ZM59.6561 28.9473L63.0387 15.896H72.0023C74.0157 15.896 75.5298 16.1694 76.5445 16.7163C77.5593 17.2508 78.0667 18.0153 78.0667 19.0097C78.0667 19.8176 77.7606 20.5012 77.1485 21.0606C76.5526 21.6199 75.7231 22.0488 74.66 22.3471C73.613 22.633 72.405 22.7759 71.0359 22.7759L71.7607 21.7691C73.4841 21.7691 74.8371 22.0363 75.8197 22.5708C76.8183 23.0929 77.3177 23.8324 77.3177 24.7895C77.3177 25.7467 76.9553 26.5359 76.2304 27.1574C75.5217 27.7665 74.5714 28.2202 73.3795 28.5185C72.1875 28.8044 70.8667 28.9473 69.4171 28.9473H59.6561ZM66.0588 25.8709H69.7312C70.2949 25.8709 70.754 25.7715 71.1084 25.5726C71.4788 25.3738 71.664 25.0754 71.664 24.6777C71.664 24.3918 71.5191 24.1805 71.2292 24.0438C70.9553 23.8946 70.6332 23.82 70.2627 23.82H66.2037L66.9527 20.9114H70.2386C70.6735 20.9114 71.0278 20.8679 71.3016 20.7809C71.5916 20.6815 71.8009 20.5509 71.9298 20.3894C72.0586 20.2153 72.1231 20.0102 72.1231 19.7741C72.1231 19.5006 71.9862 19.3017 71.7124 19.1775C71.4546 19.0407 71.0922 18.9724 70.6251 18.9724H67.8466L66.0588 25.8709ZM82.0694 28.9473L84.7513 18.3571L85.7419 19.308H79.6292L80.499 15.896H96.0101L95.1404 19.308H88.8827L90.3565 18.3571L87.6747 28.9473H82.0694ZM103.598 29.2457C101.843 29.2457 100.32 28.997 99.0317 28.4999C97.7594 28.0027 96.7688 27.319 96.0599 26.4489C95.3675 25.5664 95.021 24.5534 95.021 23.4098C95.021 22.2539 95.279 21.2035 95.7941 20.2589C96.3257 19.3017 97.0669 18.4752 98.0169 17.7791C98.9674 17.083 100.095 16.5485 101.399 16.1756C102.704 15.7903 104.13 15.5977 105.676 15.5977C107.432 15.5977 108.946 15.8463 110.218 16.3434C111.507 16.8406 112.497 17.5305 113.19 18.413C113.899 19.2831 114.253 20.2899 114.253 21.4335C114.253 22.5895 113.987 23.646 113.456 24.6031C112.941 25.5478 112.208 26.3681 111.257 27.0642C110.307 27.7603 109.179 28.301 107.875 28.6863C106.57 29.0592 105.144 29.2457 103.598 29.2457ZM104.081 25.6845C104.79 25.6845 105.41 25.5789 105.942 25.3675C106.49 25.1562 106.956 24.8641 107.343 24.4912C107.73 24.1183 108.02 23.6957 108.213 23.2234C108.406 22.7386 108.503 22.229 108.503 21.6945C108.503 21.1849 108.366 20.7436 108.092 20.3707C107.834 19.9854 107.456 19.6871 106.956 19.4758C106.473 19.2645 105.886 19.1588 105.193 19.1588C104.5 19.1588 103.88 19.2645 103.332 19.4758C102.785 19.6871 102.318 19.9792 101.931 20.3521C101.544 20.725 101.254 21.1538 101.061 21.6386C100.868 22.1109 100.771 22.6143 100.771 23.1488C100.771 23.646 100.9 24.0873 101.158 24.4726C101.432 24.8579 101.81 25.1562 102.293 25.3675C102.793 25.5789 103.389 25.6845 104.081 25.6845Z" fill="#BD3A34"/>
<path d="M120.491 29.2456L123.736 16.7675H129.206L125.961 29.2456H120.491ZM125.567 24.7357L126.425 21.42H132.567L131.709 24.7357H125.567ZM130.898 29.2456L128.348 23.3987L132.845 21.4379L136.692 29.2456H130.898ZM133.03 23.4522L127.746 23.06L134.027 16.7675H140.099L133.03 23.4522ZM136.122 29.2456L146.459 16.7675H151.836L155.684 29.2456H150.237L147.618 18.7105H149.75L141.893 29.2456H136.122ZM140.897 27.0709L143.075 24.0404H150.538L151.141 27.0709H140.897ZM157.065 29.2456L160.31 16.7675H167.518C169.697 16.7675 171.373 17.1299 172.548 17.8548C173.738 18.5798 174.332 19.5958 174.332 20.9031C174.332 21.9489 173.993 22.8699 173.313 23.6661C172.648 24.4623 171.698 25.0803 170.462 25.52C169.241 25.9597 167.796 26.1796 166.128 26.1796H160.89L163.81 24.3435L162.535 29.2456H157.065ZM163.671 24.8426L161.747 22.9352H166.406C167.163 22.9352 167.75 22.7926 168.167 22.5074C168.584 22.2103 168.793 21.8003 168.793 21.2774C168.793 20.8258 168.608 20.505 168.237 20.3148C167.881 20.1128 167.387 20.0118 166.753 20.0118H162.512L165.432 18.0509L163.671 24.8426ZM177.503 29.2456L180.075 19.1205L181.025 20.0296H175.162L175.996 16.7675H190.876L190.041 20.0296H184.039L185.452 19.1205L182.88 29.2456H177.503Z" fill="black"/>
<path d="M33.8803 25.1641C33.8803 38.1302 26.2959 48.6413 16.9401 48.6413C7.58436 48.6413 0 38.1302 0 25.1641C0 12.198 7.58436 1.68689 16.9401 1.68689C26.2959 1.68689 33.8803 12.198 33.8803 25.1641ZM0.790857 25.1641C0.790857 37.5249 8.02114 47.5452 16.9401 47.5452C25.8591 47.5452 33.0894 37.5249 33.0894 25.1641C33.0894 12.8033 25.8591 2.78293 16.9401 2.78293C8.02114 2.78293 0.790857 12.8033 0.790857 25.1641Z" fill="url(#paint0_linear_120_614)"/>
<path d="M36.4105 25.1642C36.4105 38.4408 28.8262 49.2037 19.4704 49.2037C10.1146 49.2037 2.53027 38.4408 2.53027 25.1642C2.53027 11.8875 10.1146 1.12463 19.4704 1.12463C28.8262 1.12463 36.4105 11.8875 36.4105 25.1642ZM3.32113 25.1642C3.32113 37.821 10.5514 48.0814 19.4704 48.0814C28.3894 48.0814 35.6197 37.821 35.6197 25.1642C35.6197 12.5073 28.3894 2.24693 19.4704 2.24693C10.5514 2.24693 3.32113 12.5073 3.32113 25.1642Z" fill="url(#paint1_linear_120_614)"/>
<path d="M39.2221 25.2345C39.2221 38.7053 31.6377 49.6255 22.2819 49.6255C12.9262 49.6255 5.3418 38.7053 5.3418 25.2345C5.3418 11.7637 12.9262 0.843506 22.2819 0.843506C31.6377 0.843506 39.2221 11.7637 39.2221 25.2345ZM6.13265 25.2345C6.13265 38.0764 13.3629 48.4868 22.2819 48.4868C31.2009 48.4868 38.4312 38.0764 38.4312 25.2345C38.4312 12.3926 31.2009 1.98221 22.2819 1.98221C13.3629 1.98221 6.13265 12.3926 6.13265 25.2345Z" fill="url(#paint2_linear_120_614)"/>
<path d="M42.0336 25.0939C42.0336 38.7976 34.4492 49.9066 25.0935 49.9066C15.7377 49.9066 8.15332 38.7976 8.15332 25.0939C8.15332 11.3902 15.7377 0.281128 25.0935 0.281128C34.4492 0.281128 42.0336 11.3902 42.0336 25.0939ZM8.94418 25.0939C8.94418 38.1578 16.1745 48.7482 25.0935 48.7482C34.0125 48.7482 41.2427 38.1578 41.2427 25.0939C41.2427 12.0299 34.0125 1.43952 25.0935 1.43952C16.1745 1.43952 8.94418 12.0299 8.94418 25.0939Z" fill="url(#paint3_linear_120_614)"/>
<path d="M44.2442 24.9533C44.2442 38.7346 36.6601 49.9066 27.3047 49.9066C17.9493 49.9066 10.3652 38.7346 10.3652 24.9533C10.3652 11.172 17.9493 0 27.3047 0C36.6601 0 44.2442 11.172 44.2442 24.9533ZM11.1561 24.9533C11.1561 38.0913 18.386 48.7417 27.3047 48.7417C36.2233 48.7417 43.4533 38.0913 43.4533 24.9533C43.4533 11.8154 36.2233 1.16496 27.3047 1.16496C18.386 1.16496 11.1561 11.8154 11.1561 24.9533Z" fill="url(#paint4_linear_120_614)"/>
<path d="M46.7393 24.9533C46.7393 38.7346 39.1552 49.9066 29.7998 49.9066C20.4444 49.9066 12.8604 38.7346 12.8604 24.9533C12.8604 11.172 20.4444 0 29.7998 0C39.1552 0 46.7393 11.172 46.7393 24.9533ZM13.6512 24.9533C13.6512 38.0913 20.8812 48.7417 29.7998 48.7417C38.7185 48.7417 45.9484 38.0913 45.9484 24.9533C45.9484 11.8154 38.7185 1.16496 29.7998 1.16496C20.8812 1.16496 13.6512 11.8154 13.6512 24.9533Z" fill="url(#paint5_linear_120_614)"/>
<path d="M49.5225 24.9533C49.5225 38.7346 41.9384 49.9066 32.583 49.9066C23.2276 49.9066 15.6436 38.7346 15.6436 24.9533C15.6436 11.172 23.2276 0 32.583 0C41.9384 0 49.5225 11.172 49.5225 24.9533ZM17.3967 24.9533C17.3967 37.3083 24.1958 47.3241 32.583 47.3241C40.9702 47.3241 47.7693 37.3083 47.7693 24.9533C47.7693 12.5983 40.9702 2.58253 32.583 2.58253C24.1958 2.58253 17.3967 12.5983 17.3967 24.9533Z" fill="url(#paint6_linear_120_614)"/>
<defs>
<linearGradient id="paint0_linear_120_614" x1="24.5224" y1="25.1641" x2="32.2486" y2="25.1641" gradientUnits="userSpaceOnUse">
<stop stop-color="#BD3A34"/>
<stop offset="1" stop-color="#571B18" stop-opacity="0"/>
</linearGradient>
<linearGradient id="paint1_linear_120_614" x1="27.0527" y1="25.1642" x2="34.7789" y2="25.1642" gradientUnits="userSpaceOnUse">
<stop stop-color="#BD3A34"/>
<stop offset="1" stop-color="#571B18" stop-opacity="0"/>
</linearGradient>
<linearGradient id="paint2_linear_120_614" x1="29.8642" y1="25.2345" x2="37.5904" y2="25.2345" gradientUnits="userSpaceOnUse">
<stop stop-color="#BD3A34"/>
<stop offset="1" stop-color="#571B18" stop-opacity="0"/>
</linearGradient>
<linearGradient id="paint3_linear_120_614" x1="32.6757" y1="25.0939" x2="40.402" y2="25.0939" gradientUnits="userSpaceOnUse">
<stop stop-color="#BD3A34"/>
<stop offset="1" stop-color="#571B18" stop-opacity="0"/>
</linearGradient>
<linearGradient id="paint4_linear_120_614" x1="34.8867" y1="24.9533" x2="42.6126" y2="24.9533" gradientUnits="userSpaceOnUse">
<stop stop-color="#BD3A34"/>
<stop offset="1" stop-color="#571B18" stop-opacity="0"/>
</linearGradient>
<linearGradient id="paint5_linear_120_614" x1="37.3818" y1="24.9533" x2="45.1077" y2="24.9533" gradientUnits="userSpaceOnUse">
<stop stop-color="#BD3A34"/>
<stop offset="1" stop-color="#571B18" stop-opacity="0"/>
</linearGradient>
<linearGradient id="paint6_linear_120_614" x1="40.165" y1="24.9533" x2="47.8909" y2="24.9533" gradientUnits="userSpaceOnUse">
<stop stop-color="#BD3A34"/>
<stop offset="1" stop-color="#571B18" stop-opacity="0"/>
</linearGradient>
</defs>
</svg>
