<svg width="21" height="21" viewBox="0 0 21 21" fill="none" xmlns="http://www.w3.org/2000/svg">
<path d="M9.54909 12.5273C9.55705 12.0562 9.61072 11.684 9.71013 11.4108C9.80953 11.1376 10.0123 10.8348 10.3185 10.5022L11.0998 9.70044C11.4338 9.32431 11.6008 8.92047 11.6008 8.48892C11.6008 8.0732 11.4914 7.74855 11.2727 7.51495C11.0541 7.2774 10.736 7.15862 10.3185 7.15862C9.91291 7.15862 9.58687 7.26552 9.34035 7.47932C9.09383 7.69312 8.97057 7.98016 8.97057 8.34045H7.86719C7.87514 7.69906 8.10377 7.18238 8.55307 6.79042C9.00635 6.39449 9.59482 6.19653 10.3185 6.19653C11.07 6.19653 11.6545 6.39845 12.072 6.80229C12.4934 7.20217 12.7042 7.75251 12.7042 8.45329C12.7042 9.14615 12.3821 9.82911 11.738 10.5022L11.0879 11.1436C10.7976 11.4643 10.6525 11.9255 10.6525 12.5273H9.54909ZM9.50138 14.4099C9.50138 14.2318 9.55506 14.0833 9.66241 13.9645C9.77374 13.8418 9.93677 13.7804 10.1515 13.7804C10.3662 13.7804 10.5292 13.8418 10.6405 13.9645C10.7519 14.0833 10.8075 14.2318 10.8075 14.4099C10.8075 14.5881 10.7519 14.7366 10.6405 14.8553C10.5292 14.9702 10.3662 15.0276 10.1515 15.0276C9.93677 15.0276 9.77374 14.9702 9.66241 14.8553C9.55506 14.7366 9.50138 14.5881 9.50138 14.4099Z" fill="#333333"/>
<path d="M19.9467 10.5C19.9467 15.8158 15.6184 20.1288 10.2746 20.1288C4.9308 20.1288 0.602483 15.8158 0.602483 10.5C0.602483 5.18416 4.9308 0.87116 10.2746 0.87116C15.6184 0.87116 19.9467 5.18416 19.9467 10.5Z" stroke="#D9D9DE" stroke-width="1.01356"/>
</svg>
